<svg width="100" height="31" viewBox="0 0 100 31" fill="none" xmlns="http://www.w3.org/2000/svg">
<mask id="path-1-inside-1_310_859" fill="white">
<path d="M0 5.73314C0 2.56681 2.56682 -6.19109e-06 5.73315 -3.35198e-06L76.8366 6.04034e-05H87.0748C88.5953 6.04034e-05 90.0536 0.604087 91.1288 1.67926L97.5167 8.06721C98.5919 9.14238 99.1959 10.6006 99.1959 12.1212V24.6526C99.1959 27.8189 96.6291 30.3857 93.4628 30.3857L5.73314 30.3857C2.56682 30.3857 0 27.8188 0 24.6525V13.7595V5.73314Z"/>
</mask>
<path d="M76.8366 6.04034e-05V2.00006V6.04034e-05ZM93.4628 30.3857L93.4627 32.3857L93.4628 30.3857ZM97.5167 8.06721L98.9309 6.653L97.5167 8.06721ZM91.1288 1.67926L92.543 0.265047L91.1288 1.67926ZM5.73314 30.3857L5.73314 32.3857L5.73314 30.3857ZM5.73315 2L76.8366 2.00006V-1.99994L5.73315 -2L5.73315 2ZM76.8366 2.00006H87.0748V-1.99994H76.8366V2.00006ZM89.7145 3.09347L96.1025 9.48142L98.9309 6.653L92.543 0.265047L89.7145 3.09347ZM97.1959 12.1212V24.6526H101.196V12.1212H97.1959ZM93.4628 28.3857L5.73315 28.3857L5.73314 32.3857L93.4627 32.3857L93.4628 28.3857ZM2 24.6525V13.7595H-2V24.6525H2ZM2 13.7595V5.73314H-2V13.7595H2ZM97.1959 24.6526C97.1959 26.7143 95.5245 28.3857 93.4628 28.3857L93.4627 32.3857C97.7337 32.3857 101.196 28.9235 101.196 24.6526H97.1959ZM96.1025 9.48142C96.8026 10.1815 97.1959 11.1311 97.1959 12.1212H101.196C101.196 10.0702 100.381 8.10324 98.9309 6.653L96.1025 9.48142ZM87.0748 2.00006C88.0649 2.00006 89.0144 2.39337 89.7145 3.09347L92.543 0.265047C91.0927 -1.1852 89.1258 -1.99994 87.0748 -1.99994V2.00006ZM5.73315 28.3857C3.67139 28.3857 2 26.7143 2 24.6525H-2C-2 28.9234 1.46225 32.3857 5.73314 32.3857L5.73315 28.3857ZM5.73315 -2C1.46225 -2.00001 -2 1.46224 -2 5.73314H2C2 3.67138 3.67139 1.99999 5.73315 2L5.73315 -2Z" fill="#E65661" mask="url(#path-1-inside-1_310_859)"/>
</svg>
