<svg width="100" height="31" viewBox="0 0 100 31" fill="none" xmlns="http://www.w3.org/2000/svg">
<mask id="path-1-inside-1_310_850" fill="white">
<path d="M0 5.73314C0 2.56681 2.56682 -6.19109e-06 5.73315 -3.35198e-06L76.8366 6.04034e-05H87.0748C88.5953 6.04034e-05 90.0536 0.604087 91.1288 1.67926L97.5167 8.06721C98.5919 9.14238 99.1959 10.6006 99.1959 12.1212V24.6526C99.1959 27.8189 96.6291 30.3857 93.4628 30.3857L5.73314 30.3857C2.56682 30.3857 0 27.8188 0 24.6525V13.7595V5.73314Z"/>
</mask>
<path d="M76.8366 6.04034e-05V1.00006V6.04034e-05ZM5.73314 30.3857L5.73314 31.3857L5.73314 30.3857ZM93.4628 30.3857V31.3857V30.3857ZM97.5167 8.06721L98.2238 7.3601L97.5167 8.06721ZM91.1288 1.67926L91.8359 0.972154L91.1288 1.67926ZM93.4628 29.3857L5.73314 29.3857L5.73314 31.3857L93.4628 31.3857V29.3857ZM98.1959 12.1212V24.6526H100.196V12.1212H98.1959ZM5.73315 0.999997L76.8366 1.00006V-0.99994L5.73315 -1L5.73315 0.999997ZM76.8366 1.00006H87.0748V-0.99994H76.8366V1.00006ZM90.4216 2.38637L96.8096 8.77432L98.2238 7.3601L91.8359 0.972154L90.4216 2.38637ZM1 24.6525V13.7595H-1V24.6525H1ZM1 13.7595V5.73314H-1V13.7595H1ZM5.73314 29.3857C3.1191 29.3857 1 27.2666 1 24.6525H-1C-1 28.3711 2.01453 31.3857 5.73314 31.3857L5.73314 29.3857ZM93.4628 31.3857C97.1814 31.3857 100.196 28.3712 100.196 24.6526H98.1959C98.1959 27.2666 96.0768 29.3857 93.4628 29.3857V31.3857ZM100.196 12.1212C100.196 10.3354 99.4865 8.62281 98.2238 7.3601L96.8096 8.77432C97.6972 9.66195 98.1959 10.8658 98.1959 12.1212H100.196ZM87.0748 1.00006C88.3301 1.00006 89.534 1.49873 90.4216 2.38637L91.8359 0.972154C90.5732 -0.290556 88.8605 -0.99994 87.0748 -0.99994V1.00006ZM5.73315 -1C2.01454 -1.00001 -1 2.01452 -1 5.73314H1C1 3.1191 3.1191 0.999994 5.73315 0.999997L5.73315 -1Z" fill="#829CA5" mask="url(#path-1-inside-1_310_850)"/>
</svg>
