<svg width="23" height="28" viewBox="0 0 23 28" fill="none" xmlns="http://www.w3.org/2000/svg">
<path d="M19.8871 0.153809H8.19645C6.4983 0.153809 5.11669 1.53542 5.11669 3.23357V3.61155H3.07976C1.38161 3.61155 0 4.99317 0 6.69131V24.9008C0 26.5989 1.38161 27.9805 3.07976 27.9805H14.7704C16.4685 27.9805 17.85 26.5989 17.85 24.9008V24.5228H19.8869C21.5851 24.5228 22.9667 23.1412 22.9667 21.443V3.23357C22.9668 1.53542 21.5852 0.153809 19.8871 0.153809ZM15.8635 24.9008C15.8635 25.5035 15.3731 25.9939 14.7705 25.9939H3.07976C2.47703 25.9939 1.9866 25.5035 1.9866 24.9008V6.69118C1.9866 6.08845 2.47703 5.59802 3.07976 5.59802H14.7704C15.3731 5.59802 15.8634 6.08845 15.8634 6.69118V24.9008H15.8635ZM20.9802 21.443C20.9802 22.0457 20.4898 22.5362 19.8871 22.5362H17.8501V6.69118C17.8501 4.99303 16.4685 3.61142 14.7705 3.61142H7.10329V3.23344C7.10329 2.6307 7.59371 2.14028 8.19645 2.14028H19.8871C20.4898 2.14028 20.9802 2.6307 20.9802 3.23344V21.443Z" fill="#5AD776"/>
</svg>
