<?xml version="1.0" encoding="utf-8"?>
<!-- Generator: Adobe Illustrator 26.2.1, SVG Export Plug-In . SVG Version: 6.00 Build 0)  -->
<svg version="1.1" id="Layer_1" xmlns="http://www.w3.org/2000/svg" xmlns:xlink="http://www.w3.org/1999/xlink" x="0px" y="0px"
	 viewBox="0 0 106.8 31" style="enable-background:new 0 0 106.8 31;" xml:space="preserve">
<style type="text/css">
	.st0{fill:#FFFFFF;filter:url(#Adobe_OpacityMaskFilter);}
	.st1{mask:url(#path-1-inside-1_310_849_00000144325683399949310620000002421660113005273243_);fill:#5AD776;}
</style>
<defs>
	<filter id="Adobe_OpacityMaskFilter" filterUnits="userSpaceOnUse" x="-2" y="-2" width="110.7" height="34.7">
		<feColorMatrix  type="matrix" values="1 0 0 0 0  0 1 0 0 0  0 0 1 0 0  0 0 0 1 0"/>
	</filter>
</defs>
<mask maskUnits="userSpaceOnUse" x="-2" y="-2" width="110.7" height="34.7" id="path-1-inside-1_310_849_00000144325683399949310620000002421660113005273243_">
	<path class="st0" d="M0.1,5.8C0.1,2.6,2.9,0,6.3,0l76.3,0h11c1.6,0,3.2,0.6,4.3,1.7l6.9,6.4c1.2,1.1,1.8,2.6,1.8,4.1v12.7
		c0,3.2-2.8,5.8-6.1,5.8H6.3c-3.4,0-6.1-2.6-6.1-5.8v-11V5.8z"/>
</mask>
<path class="st1" d="M82.5,0v2V0z M100.4,30.7l0,2L100.4,30.7z M104.7,8.2l1.5-1.4L104.7,8.2z M97.9,1.7l1.5-1.4L97.9,1.7z
	 M6.3,30.7v2V30.7z M6.3,2l76.3,0v-4L6.3-2V2z M82.5,2h11v-4h-11V2z M96.4,3.1l6.9,6.4l3-2.9l-6.9-6.4L96.4,3.1z M104.4,12.3v12.7
	h4.3V12.3H104.4z M100.4,28.7H6.3l0,4h94.1L100.4,28.7z M2.3,24.9v-11H-2v11H2.3z M2.3,13.9V5.8H-2v8.1H2.3z M104.4,24.9
	c0,2.1-1.8,3.8-4,3.8l0,4c4.6,0,8.3-3.5,8.3-7.8H104.4z M103.2,9.6c0.8,0.7,1.2,1.7,1.2,2.7h4.3c0-2.1-0.9-4.1-2.4-5.5L103.2,9.6z
	 M93.5,2c1.1,0,2.1,0.4,2.8,1.1l3-2.9C97.8-1.2,95.7-2,93.5-2V2z M6.3,28.7c-2.2,0-4-1.7-4-3.8H-2c0,4.3,3.7,7.8,8.3,7.8L6.3,28.7z
	 M6.3-2C1.7-2-2,1.5-2,5.8h4.3c0-2.1,1.8-3.8,4-3.8V-2z"/>
</svg>
