<svg width="28" height="28" viewBox="0 0 28 28" fill="none" xmlns="http://www.w3.org/2000/svg">
<path d="M20.2222 15.5552H17.1111C16.252 15.5552 15.5555 16.2516 15.5555 17.1107C15.5555 17.9699 16.252 18.6663 17.1111 18.6663H20.2222C21.0813 18.6663 21.7778 17.9699 21.7778 17.1107C21.7778 16.2516 21.0813 15.5552 20.2222 15.5552Z" fill="#5AD776"/>
<path d="M12.4444 4.66667C12.4444 2.09347 10.351 0 7.77778 0H4.66667C2.09347 0 0 2.09347 0 4.66667V7.77778C0 10.351 2.09347 12.4444 4.66667 12.4444H7.77778C10.351 12.4444 12.4444 10.351 12.4444 7.77778V4.66667ZM9.33333 7.77778C9.33333 8.63551 8.63551 9.33333 7.77778 9.33333H4.66667C3.80893 9.33333 3.11111 8.63551 3.11111 7.77778V4.66667C3.11111 3.80893 3.80893 3.11111 4.66667 3.11111H7.77778C8.63551 3.11111 9.33333 3.80893 9.33333 4.66667V7.77778Z" fill="#5AD776"/>
<path d="M15.5555 4.66667V7.77778C15.5555 10.351 17.649 12.4444 20.2222 12.4444H23.3333C25.9065 12.4444 28 10.351 28 7.77778V4.66667C28 2.09347 25.9065 0 23.3333 0H20.2222C17.649 0 15.5555 2.09347 15.5555 4.66667ZM18.6667 4.66667C18.6667 3.80893 19.3645 3.11111 20.2222 3.11111H23.3333C24.1911 3.11111 24.8889 3.80893 24.8889 4.66667V7.77778C24.8889 8.63551 24.1911 9.33333 23.3333 9.33333H20.2222C19.3645 9.33333 18.6667 8.63551 18.6667 7.77778V4.66667Z" fill="#5AD776"/>
<path d="M7.77778 15.5552H4.66667C2.09347 15.5552 0 17.6486 0 20.2218V23.333C0 25.9062 2.09347 27.9996 4.66667 27.9996H7.77778C10.351 27.9996 12.4444 25.9062 12.4444 23.333V20.2218C12.4444 17.6486 10.351 15.5552 7.77778 15.5552ZM9.33333 23.333C9.33333 24.1907 8.63551 24.8885 7.77778 24.8885H4.66667C3.80893 24.8885 3.11111 24.1907 3.11111 23.333V20.2218C3.11111 19.3641 3.80893 18.6663 4.66667 18.6663H7.77778C8.63551 18.6663 9.33333 19.3641 9.33333 20.2218V23.333Z" fill="#5AD776"/>
<path d="M17.1111 27.9996H23.3333C25.9065 27.9996 28 25.9062 28 23.333V17.1107C28 16.2516 27.3036 15.5552 26.4444 15.5552C25.5853 15.5552 24.8889 16.2516 24.8889 17.1107V23.333C24.8889 24.1907 24.1911 24.8885 23.3333 24.8885H21.7778V23.333C21.7778 22.4738 21.0813 21.7774 20.2222 21.7774C19.3631 21.7774 18.6667 22.4738 18.6667 23.333V24.8885H17.1111C16.252 24.8885 15.5555 25.5849 15.5555 26.4441C15.5555 27.3032 16.252 27.9996 17.1111 27.9996Z" fill="#5AD776"/>
</svg>
