<svg width="135" height="48" viewBox="0 0 135 48" fill="none" xmlns="http://www.w3.org/2000/svg">
<mask id="path-1-inside-1_1_33" fill="white">
<path d="M0 10C0 4.47715 4.47715 0 10 0H96H113.858C116.51 0 119.054 1.05357 120.929 2.92893L132.071 14.0711C133.946 15.9464 135 18.49 135 21.1421V38C135 43.5228 130.523 48 125 48H10C4.47715 48 0 43.5228 0 38V24V10Z"/>
</mask>
<path d="M132.071 14.0711L133.839 12.3033L132.071 14.0711ZM120.929 2.92893L119.161 4.6967L120.929 2.92893ZM125 45.5H10V50.5H125V45.5ZM132.5 21.1421V38H137.5V21.1421H132.5ZM10 2.5H96V-2.5H10V2.5ZM96 2.5H113.858V-2.5H96V2.5ZM119.161 4.6967L130.303 15.8388L133.839 12.3033L122.697 1.16116L119.161 4.6967ZM2.5 38V24H-2.5V38H2.5ZM2.5 24V10H-2.5V24H2.5ZM10 45.5C5.85787 45.5 2.5 42.1421 2.5 38H-2.5C-2.5 44.9036 3.09644 50.5 10 50.5V45.5ZM125 50.5C131.904 50.5 137.5 44.9036 137.5 38H132.5C132.5 42.1421 129.142 45.5 125 45.5V50.5ZM137.5 21.1421C137.5 17.8269 136.183 14.6475 133.839 12.3033L130.303 15.8388C131.71 17.2454 132.5 19.153 132.5 21.1421H137.5ZM113.858 2.5C115.847 2.5 117.755 3.29018 119.161 4.6967L122.697 1.16116C120.352 -1.18304 117.173 -2.5 113.858 -2.5V2.5ZM10 -2.5C3.09644 -2.5 -2.5 3.09644 -2.5 10H2.5C2.5 5.85786 5.85786 2.5 10 2.5V-2.5Z" fill="url(#paint0_linear_1_33)" mask="url(#path-1-inside-1_1_33)"/>
<defs>
<linearGradient id="paint0_linear_1_33" x1="4.5" y1="3" x2="140.5" y2="48" gradientUnits="userSpaceOnUse">
<stop stop-color="#00BFFF"/>
<stop offset="1" stop-color="#DC04FF" stop-opacity="0.98"/>
</linearGradient>
</defs>
</svg>
