<svg width="160" height="33" viewBox="0 0 160 33" fill="none" xmlns="http://www.w3.org/2000/svg">
<path d="M22.7292 19.2695C23.2192 20.468 23.4598 21.7283 23.4598 23.0546C23.4598 24.403 23.2148 25.6721 22.7292 26.8706C22.2217 28.0868 21.5173 29.1576 20.6291 30.0785C19.6928 30.9995 18.6252 31.7133 17.4133 32.2289C16.2014 32.74 14.9413 33 13.6244 33H0V26.6503H13.6244C14.5344 26.6503 15.322 26.289 15.9782 25.5619C16.6345 24.8569 16.967 24.024 16.967 23.0634C16.967 22.1425 16.6389 21.3449 15.9782 20.6575C15.322 19.9525 14.5344 19.5999 13.6244 19.5999H0V0H12.8937C14.25 0 15.5364 0.246761 16.7439 0.735879C17.934 1.2294 18.9928 1.93444 19.9291 2.85098C20.8216 3.77193 21.5216 4.82948 22.0291 6.02364C22.5192 7.24423 22.7598 8.54413 22.7598 9.93657C22.7598 12.2235 22.0467 14.2769 20.6247 16.0924C21.5216 17.0134 22.2217 18.0709 22.7292 19.2695ZM15.2476 12.3425C15.8864 11.6815 16.2014 10.8796 16.2014 9.93657C16.2014 8.998 15.882 8.16077 15.2476 7.4337C14.6088 6.70664 13.8256 6.34531 12.8937 6.34531H6.65468V13.3648H12.8937C13.8256 13.3692 14.6132 13.0255 15.2476 12.3425Z" fill="#00BFFF"/>
<path d="M27.6951 0H34.2535V32.9912H27.6951V0Z" fill="#00BFFF"/>
<path d="M38.8037 0H59.9403V6.12498H52.5549V32.9912H46.0621V6.12498H38.8037V0Z" fill="#00BFFF"/>
<path d="M69.6182 26.5446H82.7001V32.9868H63.1211V23.1119C63.1211 21.8076 63.3748 20.5386 63.8867 19.2959C64.3986 18.0798 65.1074 17.009 66.0218 16.088C67.7632 14.3343 70.0645 13.4574 72.9303 13.4574L73.0571 13.4882C74.0547 13.4882 74.8291 13.1665 75.3804 12.5276C75.9317 11.8887 76.2073 11.0206 76.2073 9.93221C76.2073 8.86144 75.9317 8.0198 75.3804 7.39849C74.8291 6.79921 74.0547 6.49957 73.0571 6.49957L64.1755 6.43347H63.1254V0.0308838H72.8996C74.2166 0.0308838 75.4679 0.286459 76.6579 0.802015C77.8699 1.31316 78.9199 2.0182 79.8081 2.91712C80.7225 3.81604 81.4313 4.8824 81.9432 6.12502C82.4507 7.34561 82.7088 8.61468 82.7088 9.94102V10.2627C82.7088 11.4789 82.4857 12.6466 82.0394 13.757C81.5494 14.9335 80.8625 15.9823 79.97 16.8988C79.1212 17.7757 78.093 18.4367 76.8811 18.8861C75.691 19.3576 74.4178 19.5912 73.0615 19.5912L72.9346 19.5251C71.9371 19.5251 71.1321 19.8556 70.5152 20.5165C69.9201 21.1775 69.6226 22.0456 69.6226 23.1119V26.5446H69.6182Z" fill="white"/>
<path d="M100.564 0.0308838H107.057V32.9912H100.564V19.9745H85.9509V0.0308838H92.4437V13.0784H100.56V0.0308838H100.564Z" fill="white"/>
<path d="M123.293 0H129.821V32.9912H123.293V19.7189H116.765V32.9912H110.238V0H116.765V13.2723H123.293V0Z" fill="white"/>
<path d="M154.585 21.8032C155.985 23.0414 157.087 24.5087 157.897 26.1964C158.724 27.9282 159.139 29.7436 159.139 31.6472V32.9956H152.55V31.6472C152.55 29.6599 151.903 27.9943 150.608 26.6459C150.013 26.0466 149.321 25.5795 148.538 25.2358C147.733 24.8745 146.893 24.6894 146.022 24.6894H142.264V32.9956H135.675V18.4366H146.307C147.156 18.4366 147.908 18.3529 148.569 18.1811C149.334 17.9872 149.999 17.6038 150.573 17.0266C151.824 15.7663 152.45 14.2285 152.45 12.4086C152.45 10.4653 151.824 8.89224 150.573 7.69368C149.999 7.1605 149.33 6.78595 148.569 6.57004C147.847 6.35853 146.989 6.23955 145.992 6.21752H135.675V0.705033C135.675 0.511149 135.728 0.343704 135.833 0.193884C135.959 0.0660963 136.139 0 136.375 0H146.022C149.925 0.0220323 153.014 1.18534 155.285 3.49432C157.853 6.08092 159.135 9.05087 159.135 12.4086C159.135 15.7443 157.849 18.6614 155.285 21.1598C155.053 21.3934 154.817 21.6093 154.585 21.8032Z" fill="white"/>
</svg>
