<svg width="131" height="28" viewBox="0 0 131 28" fill="none" xmlns="http://www.w3.org/2000/svg">
<path d="M18.7102 15.8622C19.1135 16.8488 19.3116 17.8862 19.3116 18.9781C19.3116 20.088 19.1099 21.1327 18.7102 22.1193C18.2924 23.1204 17.7125 24.0019 16.9814 24.76C16.2107 25.5181 15.3319 26.1057 14.3343 26.5301C13.3366 26.9509 12.2994 27.1649 11.2153 27.1649H0V21.9379H11.2153C11.9644 21.9379 12.6127 21.6405 13.1529 21.042C13.6932 20.4616 13.9669 19.7761 13.9669 18.9853C13.9669 18.2272 13.6968 17.5707 13.1529 17.0048C12.6127 16.4244 11.9644 16.1343 11.2153 16.1343H0V0H10.6138C11.7303 0 12.7892 0.203128 13.7832 0.605759C14.7628 1.01202 15.6344 1.59239 16.4052 2.34686C17.1399 3.10497 17.7161 3.97553 18.1339 4.95853C18.5373 5.96329 18.7354 7.03334 18.7354 8.17957C18.7354 10.0621 18.1483 11.7525 16.9778 13.2469C17.7161 14.005 18.2924 14.8756 18.7102 15.8622ZM12.5515 10.1601C13.0773 9.61598 13.3366 8.95581 13.3366 8.17957C13.3366 7.40696 13.0737 6.71777 12.5515 6.11926C12.0256 5.52076 11.381 5.22332 10.6138 5.22332H5.47799V11.0016H10.6138C11.381 11.0052 12.0293 10.7223 12.5515 10.1601Z" fill="#F5CD8E"/>
<path d="M22.7979 0.00012207H28.1966V27.1578H22.7979V0.00012207Z" fill="#F5CD8E"/>
<path d="M31.9424 0.00012207H49.3416V5.04208H43.2621V27.1578H37.9174V5.04208H31.9424V0.00012207Z" fill="#F5CD8E"/>
<path d="M57.3083 21.8509H68.077V27.154H51.96V19.0252C51.96 17.9515 52.1689 16.9069 52.5902 15.884C53.0116 14.8828 53.5951 14.0014 54.3478 13.2433C55.7812 11.7996 57.6757 11.0778 60.0347 11.0778L60.1391 11.1032C60.9603 11.1032 61.5978 10.8384 62.0516 10.3124C62.5054 9.78647 62.7323 9.07189 62.7323 8.17594C62.7323 7.29451 62.5054 6.60169 62.0516 6.09024C61.5978 5.59693 60.9603 5.35027 60.1391 5.35027L52.8279 5.29586H51.9636V0.0253906H60.0095C61.0936 0.0253906 62.1236 0.235774 63.1032 0.660169C64.1009 1.08094 64.9652 1.6613 65.6964 2.40128C66.4491 3.14125 67.0325 4.01905 67.4539 5.04195C67.8717 6.04672 68.0842 7.09138 68.0842 8.1832V8.44799C68.0842 9.44913 67.9005 10.4104 67.5332 11.3244C67.1298 12.2929 66.5643 13.1562 65.8296 13.9107C65.1309 14.6325 64.2845 15.1766 63.2869 15.5466C62.3073 15.9347 61.2592 16.127 60.1427 16.127L60.0383 16.0726C59.2171 16.0726 58.5544 16.3446 58.0466 16.8887C57.5568 17.4328 57.3119 18.1474 57.3119 19.0252V21.8509H57.3083Z" fill="#F5CD8E"/>
<path d="M82.7822 0.0253906H88.1269V27.1576H82.7822V16.4426H70.7529V0.0253906H76.0977V10.7658H82.7786V0.0253906H82.7822Z" fill="#F5CD8E"/>
<path d="M101.492 0.00012207H106.866V27.1578H101.492V16.2323H96.1187V27.1578H90.7451V0.00012207H96.1187V10.9256H101.492V0.00012207Z" fill="#F5CD8E"/>
<path d="M127.251 17.948C128.403 18.9673 129.311 20.1752 129.977 21.5644C130.658 22.99 131 24.4844 131 26.0514V27.1614H125.576V26.0514C125.576 24.4155 125.043 23.0444 123.977 21.9344C123.487 21.4411 122.918 21.0566 122.273 20.7737C121.61 20.4763 120.919 20.3239 120.202 20.3239H117.109V27.1614H111.685V15.1768H120.436C121.135 15.1768 121.755 15.1078 122.298 14.9664C122.929 14.8068 123.476 14.4912 123.948 14.016C124.978 12.9786 125.493 11.7127 125.493 10.2146C125.493 8.61497 124.978 7.32002 123.948 6.33339C123.476 5.89449 122.925 5.58617 122.298 5.40843C121.704 5.23432 120.998 5.13638 120.177 5.11825H111.685V0.58049C111.685 0.420889 111.728 0.283051 111.814 0.159723C111.919 0.0545311 112.066 0.00012207 112.261 0.00012207H120.202C123.415 0.0182586 125.958 0.975866 127.827 2.87657C129.941 5.0058 130.996 7.45061 130.996 10.2146C130.996 12.9605 129.937 15.3618 127.827 17.4184C127.636 17.6107 127.441 17.7884 127.251 17.948Z" fill="#F5CD8E"/>
</svg>
