<svg width="179" height="44" viewBox="0 0 179 44" fill="none" xmlns="http://www.w3.org/2000/svg">
<mask id="path-1-inside-1_265_842" fill="white">
<path d="M0 8.2069C0 3.67435 3.67435 0 8.2069 0H146.493H161.149C163.325 0 165.413 0.864653 166.952 2.40374L176.096 11.548C177.635 13.0871 178.5 15.1745 178.5 17.3511V35.2896C178.5 39.8222 174.826 43.4966 170.293 43.4966H8.20689C3.67435 43.4966 0 39.8222 0 35.2897V19.6966V8.2069Z"/>
</mask>
<path d="M176.096 11.548L174.682 12.9622L176.096 11.548ZM170.293 41.4966H8.20689V45.4966H170.293V41.4966ZM176.5 17.3511V35.2896H180.5V17.3511H176.5ZM8.2069 2H146.493V-2H8.2069V2ZM146.493 2H161.149V-2H146.493V2ZM165.538 3.81796L174.682 12.9622L177.51 10.1338L168.366 0.989531L165.538 3.81796ZM2 35.2897V19.6966H-2V35.2897H2ZM2 19.6966V8.2069H-2V19.6966H2ZM8.20689 41.4966C4.77892 41.4966 2 38.7176 2 35.2897H-2C-2 40.9268 2.56978 45.4966 8.20689 45.4966V41.4966ZM170.293 45.4966C175.93 45.4966 180.5 40.9268 180.5 35.2896H176.5C176.5 38.7176 173.721 41.4966 170.293 41.4966V45.4966ZM180.5 17.3511C180.5 14.6441 179.425 12.0479 177.51 10.1338L174.682 12.9622C175.846 14.1262 176.5 15.705 176.5 17.3511H180.5ZM161.149 2C162.795 2 164.374 2.65394 165.538 3.81796L168.366 0.989531C166.452 -0.924634 163.856 -2 161.149 -2V2ZM8.2069 -2C2.56978 -2 -2 2.56978 -2 8.2069H2C2 4.77892 4.77892 2 8.2069 2V-2Z" fill="url(#paint0_linear_265_842)" mask="url(#path-1-inside-1_265_842)"/>
<defs>
<linearGradient id="paint0_linear_265_842" x1="-7.29636e-06" y1="-6.97585" x2="131.055" y2="79.4841" gradientUnits="userSpaceOnUse">
<stop stop-color="#00BFFF"/>
<stop offset="1" stop-color="#DC04FF" stop-opacity="0.98"/>
</linearGradient>
</defs>
</svg>
