<svg width="16" height="19" viewBox="0 0 16 19" fill="none" xmlns="http://www.w3.org/2000/svg">
<path d="M13.3919 0.851562H5.77349C4.66686 0.851562 3.76651 1.75192 3.76651 2.85854V3.10486H2.43911C1.33248 3.10486 0.432129 4.00522 0.432129 5.11184V16.9784C0.432129 18.085 1.33248 18.9853 2.43911 18.9853H10.0575C11.1641 18.9853 12.0644 18.085 12.0644 16.9784V16.732H13.3918C14.4984 16.732 15.3988 15.8317 15.3988 14.7251V2.85854C15.3989 1.75192 14.4985 0.851562 13.3919 0.851562ZM10.7699 16.9784C10.7699 17.3711 10.4503 17.6907 10.0576 17.6907H2.43911C2.04633 17.6907 1.72673 17.3711 1.72673 16.9784V5.11176C1.72673 4.71898 2.04633 4.39938 2.43911 4.39938H10.0575C10.4503 4.39938 10.7698 4.71898 10.7698 5.11176V16.9784H10.7699ZM14.1043 14.7251C14.1043 15.1178 13.7847 15.4374 13.3919 15.4374H12.0645V5.11176C12.0645 4.00513 11.1641 3.10478 10.0576 3.10478H5.06111V2.85846C5.06111 2.46567 5.38071 2.14608 5.77349 2.14608H13.3919C13.7847 2.14608 14.1043 2.46567 14.1043 2.85846V14.7251Z" fill="white"/>
</svg>
