<svg width="364" height="65" viewBox="0 0 364 65" fill="none" xmlns="http://www.w3.org/2000/svg">
<mask id="path-1-inside-1_322_4996" fill="white">
<path d="M0 10C0 4.47715 4.47715 0 10 0L316.139 0H338.997C341.648 0 344.191 1.05269 346.066 2.92668L361.069 17.9197C362.946 19.7953 364 22.3398 364 24.9931V55C364 60.5229 359.523 65 354 65H10C4.47716 65 0 60.5228 0 55V29.434V10Z"/>
</mask>
<path d="M316.139 0V3.06604V0ZM361.069 17.9197L363.236 15.751L361.069 17.9197ZM346.066 2.92668L343.899 5.09538L346.066 2.92668ZM354 61.934H10V68.066H354V61.934ZM360.934 24.9931V55H367.066V24.9931H360.934ZM10 3.06604H316.139V-3.06604H10V3.06604ZM316.139 3.06604H338.997V-3.06604H316.139V3.06604ZM343.899 5.09538L358.902 20.0884L363.236 15.751L348.234 0.757968L343.899 5.09538ZM3.06604 55V29.434H-3.06604V55H3.06604ZM3.06604 29.434V10H-3.06604V29.434H3.06604ZM10 61.934C6.17049 61.934 3.06604 58.8295 3.06604 55H-3.06604C-3.06604 62.2162 2.78384 68.066 10 68.066V61.934ZM354 68.066C361.216 68.066 367.066 62.2162 367.066 55H360.934C360.934 58.8295 357.83 61.934 354 61.934V68.066ZM367.066 24.9931C367.066 21.5263 365.688 18.2016 363.236 15.751L358.902 20.0884C360.203 21.3889 360.934 23.1533 360.934 24.9931H367.066ZM338.997 3.06604C340.836 3.06604 342.599 3.79597 343.899 5.09538L348.234 0.757968C345.783 -1.69059 342.461 -3.06604 338.997 -3.06604V3.06604ZM10 -3.06604C2.78383 -3.06604 -3.06604 2.78383 -3.06604 10H3.06604C3.06604 6.17048 6.17048 3.06604 10 3.06604V-3.06604Z" fill="#00BFFF" mask="url(#path-1-inside-1_322_4996)"/>
</svg>
