<svg width="24" height="24" viewBox="0 0 24 24" fill="none" xmlns="http://www.w3.org/2000/svg">
<path d="M11.9998 2.04274C17.4991 2.04274 21.9569 6.50075 21.9569 11.9998C21.9569 17.4989 17.4989 21.9569 11.9998 21.9569C6.50075 21.9569 2.04274 17.4991 2.04274 11.9998C2.04274 6.50056 6.50075 2.04274 11.9998 2.04274ZM11.9998 0C10.3808 0 8.80905 0.317554 7.32843 0.943933C6.617 1.24496 5.93083 1.6173 5.28922 2.05073C4.6543 2.4797 4.05726 2.97238 3.51463 3.51482C2.97219 4.05726 2.47952 4.6543 2.05054 5.2894C1.61711 5.93101 1.24477 6.617 0.943747 7.32862C0.317554 8.80905 0 10.3808 0 11.9998C0 13.6188 0.317554 15.1906 0.943933 16.6714C1.24477 17.3828 1.6173 18.069 2.05073 18.7106C2.4797 19.3455 2.97238 19.9426 3.51482 20.4852C4.05726 21.0276 4.6543 21.5203 5.2894 21.9493C5.93101 22.3827 6.617 22.755 7.32862 23.0561C8.80942 23.6824 10.381 24 12.0002 24C13.6193 24 15.191 23.6824 16.6718 23.0561C17.3832 22.7552 18.0694 22.3827 18.711 21.9493C19.3459 21.5203 19.9429 21.0276 20.4856 20.4852C21.028 19.9427 21.5207 19.3457 21.9496 18.7106C22.3831 18.069 22.7554 17.383 23.0564 16.6714C23.6828 15.1906 24.0004 13.619 24.0004 11.9998C24.0004 10.3807 23.6828 8.80905 23.0564 7.32825C22.7556 6.61682 22.3831 5.93064 21.9496 5.28903C21.5207 4.65411 21.028 4.05707 20.4856 3.51445C19.9431 2.97201 19.3461 2.47933 18.711 2.05036C18.069 1.61711 17.3828 1.24477 16.6714 0.943933C15.1908 0.317554 13.619 0 11.9998 0Z" fill="url(#paint0_linear_256_735)"/>
<rect x="13" y="5" width="10" height="2" transform="rotate(90 13 5)" fill="url(#paint1_linear_256_735)"/>
<rect x="13" y="17" width="2" height="2" transform="rotate(90 13 17)" fill="url(#paint2_linear_256_735)"/>
<defs>
<linearGradient id="paint0_linear_256_735" x1="0.500001" y1="0.5" x2="22.5" y2="22" gradientUnits="userSpaceOnUse">
<stop stop-color="#DC04FF"/>
<stop offset="1" stop-color="#00BFFF"/>
</linearGradient>
<linearGradient id="paint1_linear_256_735" x1="-47" y1="5" x2="-46.7495" y2="11.2017" gradientUnits="userSpaceOnUse">
<stop stop-color="#00BFFF"/>
<stop offset="1" stop-color="#DC04FF"/>
</linearGradient>
<linearGradient id="paint2_linear_256_735" x1="1" y1="17" x2="2.20544" y2="22.9684" gradientUnits="userSpaceOnUse">
<stop stop-color="#00BFFF"/>
<stop offset="1" stop-color="#DC04FF"/>
</linearGradient>
</defs>
</svg>
