<svg width="23" height="26" viewBox="0 0 23 26" fill="none" xmlns="http://www.w3.org/2000/svg">
<path d="M21.464 3.43478L11.29 0.0434561C11.1156 -0.0144854 10.9279 -0.0144854 10.7535 0.0434561L0.579566 3.43478C0.233492 3.55016 2.2333e-10 3.87414 2.2333e-10 4.23905V11.0366C-5.0781e-05 20.7658 8.65998 26 11.0218 26C12.7163 26 22.0435 21.394 22.0435 11.0366V4.239C22.0435 3.87414 21.81 3.5501 21.464 3.43478ZM18.6522 11.0385C18.6522 18.4051 12.2755 22.3625 11.0217 22.3639V3.58311C11.2747 3.58362 17.832 5.79631 18.072 5.87609C18.4181 5.99116 18.6522 6.31545 18.6522 6.68057L18.6522 11.0385Z" fill="#F5CD8E"/>
</svg>
