<svg width="26" height="26" viewBox="0 0 26 26" fill="none" xmlns="http://www.w3.org/2000/svg">
<path d="M13 7.10938C9.75193 7.10938 7.10938 9.75193 7.10938 13C7.10938 16.2481 9.75193 18.8906 13 18.8906C16.2481 18.8906 18.8906 16.2481 18.8906 13C18.8906 9.75193 16.2481 7.10938 13 7.10938ZM9.94043 10.1499H14.3399L14.1074 9.89371C13.8247 9.58217 13.8481 9.10041 14.1596 8.81776C14.4712 8.53506 14.9529 8.55847 15.2356 8.87001L16.6236 10.3998C16.8871 10.6902 16.8871 11.1331 16.6236 11.4235L15.2356 12.9533C15.0853 13.119 14.8787 13.2031 14.6713 13.2031C14.4887 13.2031 14.3055 13.1379 14.1596 13.0055C13.8481 12.7228 13.8247 12.2411 14.1074 11.9296L14.3399 11.6734H9.94043C9.51976 11.6734 9.17871 11.3323 9.17871 10.9117C9.17871 10.491 9.51976 10.1499 9.94043 10.1499ZM16.0596 15.8501H11.6601L11.8926 16.1063C12.1753 16.4178 12.1519 16.8996 11.8404 17.1822C11.6945 17.3146 11.5113 17.3798 11.3287 17.3798C11.1213 17.3798 10.9148 17.2956 10.7644 17.13L9.3764 15.6002C9.11295 15.3098 9.11295 14.8669 9.3764 14.5765L10.7644 13.0467C11.0471 12.7352 11.5289 12.7118 11.8404 12.9945C12.1519 13.2772 12.1753 13.7589 11.8926 14.0704L11.6601 14.3266H16.0596C16.4802 14.3266 16.8213 14.6677 16.8213 15.0883C16.8213 15.509 16.4802 15.8501 16.0596 15.8501Z" fill="#F5CD8E"/>
<path d="M25.2383 10.1522H23.5382C23.2941 9.24544 22.9345 8.37835 22.4646 7.5628L23.6675 6.35989C23.9649 6.06242 23.9649 5.58015 23.6675 5.28267L20.7173 2.33254C20.4199 2.03506 19.9376 2.03506 19.6401 2.33254L18.4371 3.53544C17.6216 3.06546 16.7545 2.70593 15.8478 2.46182V0.761719C15.8478 0.341047 15.5067 0 15.086 0H10.9139C10.4932 0 10.1522 0.341047 10.1522 0.761719V2.46182C9.24549 2.70593 8.37835 3.06546 7.5628 3.53544L6.35989 2.33254C6.06247 2.03506 5.58015 2.03506 5.28267 2.33254L2.33254 5.28267C2.03506 5.58015 2.03506 6.06242 2.33254 6.35989L3.53544 7.5628C3.06546 8.37835 2.70593 9.24544 2.46182 10.1522H0.761719C0.341047 10.1522 0 10.4932 0 10.9139V15.086C0 15.5067 0.341047 15.8478 0.761719 15.8478H2.46182C2.70593 16.7545 3.06546 17.6216 3.53544 18.4371L2.33254 19.6401C2.03506 19.9375 2.03506 20.4198 2.33254 20.7173L5.28267 23.6674C5.5801 23.9649 6.06242 23.9649 6.35989 23.6674L7.5628 22.4645C8.3784 22.9345 9.24534 23.294 10.1522 23.5382V25.2383C10.1522 25.659 10.4932 26 10.9139 26H15.086C15.5067 26 15.8478 25.659 15.8478 25.2383V23.5382C16.7546 23.2941 17.6216 22.9346 18.4371 22.4645L19.6401 23.6674C19.9375 23.9649 20.4198 23.9649 20.7173 23.6674L23.6674 20.7173C23.9649 20.4198 23.9649 19.9375 23.6674 19.6401L22.4645 18.4371C22.9345 17.6216 23.294 16.7545 23.5381 15.8478H25.2383C25.659 15.8478 26 15.5067 26 15.086V10.9139C26 10.4932 25.659 10.1522 25.2383 10.1522ZM13 20.4141C8.91186 20.4141 5.58594 17.0881 5.58594 13C5.58594 8.91186 8.91186 5.58594 13 5.58594C17.0881 5.58594 20.4141 8.91186 20.4141 13C20.4141 17.0881 17.0881 20.4141 13 20.4141Z" fill="#F5CD8E"/>
</svg>
