<svg width="26" height="26" viewBox="0 0 26 26" fill="none" xmlns="http://www.w3.org/2000/svg">
<path d="M14.4579 7.22892C14.4579 3.23652 11.2214 0 7.22892 0C3.23646 0 0 3.23652 0 7.22892C0 11.2213 3.23652 14.4578 7.22892 14.4578C11.2213 14.4578 14.4579 11.2214 14.4579 7.22892ZM5.18545 10.5811V9.05456H7.23192C7.52359 9.05456 7.76087 8.81729 7.76087 8.52561C7.76087 8.23394 7.52359 7.99662 7.23192 7.99662H7.12089C5.98505 7.99662 5.06093 7.07255 5.06093 5.93671C5.06093 5.07045 5.59868 4.32789 6.35762 4.02395V2.72569H7.88416V3.87675H9.29285V5.40328H7.12089C6.82678 5.40328 6.58747 5.64259 6.58747 5.93671C6.58747 6.23082 6.82678 6.47008 7.12089 6.47008H7.23192C8.36533 6.47008 9.28741 7.39216 9.28741 8.52556C9.28741 9.431 8.69872 10.201 7.88416 10.4744V11.7322H6.35762V10.5811H5.18545Z" fill="#F5CD8E"/>
<path d="M18.8253 11.6508C14.8628 11.6508 11.6506 14.8629 11.6506 18.8254C11.6506 22.7878 14.8628 26 18.8253 26C22.7877 26 25.9999 22.7878 25.9999 18.8254C25.9999 14.8629 22.7877 11.6508 18.8253 11.6508ZM21.3742 17.5419H19.8477V17.1862C19.8477 16.6473 19.4093 16.2089 18.8704 16.2089C18.3316 16.2089 17.8932 16.6473 17.8932 17.1862V17.2385C17.8932 17.5354 17.9777 17.8246 18.1376 18.0748C18.1849 18.1488 18.2284 18.2243 18.2688 18.3009H19.9956V19.8274H18.6233C18.6105 20.2381 18.5149 20.6474 18.3357 21.0311C18.7627 21.022 19.2204 21.0615 19.6347 21.2026C20.043 21.3204 20.4746 21.3221 20.8839 21.2075L21.2953 22.6777C20.6041 22.8711 19.875 22.8657 19.1865 22.662L19.1511 22.6505C18.5437 22.438 17.5048 22.6423 17.1887 22.7306L16.6843 22.8715L15.9096 21.8342L16.8987 20.4903C17.015 20.2823 17.0793 20.0558 17.0934 19.8274H15.4942V18.3009H16.5557C16.4312 17.9624 16.3667 17.6034 16.3667 17.2385V17.1862C16.3667 15.8056 17.4899 14.6824 18.8705 14.6824C20.2511 14.6824 21.3743 15.8056 21.3743 17.1862V17.5419H21.3742Z" fill="#F5CD8E"/>
<path d="M21.2252 5.67526V4.34712C21.2252 2.71759 19.8994 1.39185 18.2699 1.39185H16.5438V2.91838H18.2699C19.0577 2.91838 19.6987 3.55933 19.6987 4.34712V5.67531H17.7479L20.4619 10.1408L23.1759 5.67531L21.2252 5.67526Z" fill="#F5CD8E"/>
<path d="M6.24854 21.7191V20.3909H8.19925L5.48527 15.9254L2.77124 20.3909H4.72195V21.7191C4.72195 23.3486 6.0477 24.6744 7.67723 24.6744H9.40334V23.1478H7.67723C6.88943 23.1478 6.24854 22.5069 6.24854 21.7191Z" fill="#F5CD8E"/>
</svg>
