<svg width="26" height="25" viewBox="0 0 26 25" fill="none" xmlns="http://www.w3.org/2000/svg">
<path d="M25.9571 23.0938L24.4714 17.8938C24.3347 17.4155 23.8975 17.0857 23.4 17.0857H22.2857V9.65708H24.1428C24.6338 9.65708 25.067 9.33564 25.2093 8.86571C25.3515 8.39578 25.1694 7.88802 24.7609 7.61573L13.618 0.187154C13.2438 -0.0623847 12.7562 -0.0623847 12.3819 0.187154L1.23902 7.61573C0.830437 7.88807 0.648386 8.39578 0.790624 8.86571C0.932964 9.33564 1.36613 9.65708 1.85713 9.65708H3.71425V17.0857H2.60001C2.1025 17.0857 1.66528 17.4154 1.52858 17.8938L0.0428719 23.0938C-0.0531553 23.43 0.0141297 23.7918 0.224668 24.0709C0.435258 24.3501 0.764625 24.5142 1.1143 24.5142H24.8857C25.2354 24.5142 25.5647 24.3501 25.7753 24.0709C25.9858 23.7918 26.0532 23.43 25.9571 23.0938ZM9.1619 17.0857H5.94288V9.65708H9.1619V17.0857ZM14.6095 17.0857H11.3905V9.65708H14.6095V17.0857ZM20.0571 17.0857H16.8381V9.65708H20.0571V17.0857Z" fill="#F5CD8E"/>
</svg>
