<svg width="26" height="26" viewBox="0 0 26 26" fill="none" xmlns="http://www.w3.org/2000/svg">
<path d="M5.33203 0C3.65163 0 2.28516 1.41725 2.28516 3.09766C2.28516 4.77806 3.65163 6.14453 5.33203 6.14453C7.01243 6.14453 8.37891 4.77806 8.37891 3.09766C8.37891 1.41725 7.01243 0 5.33203 0Z" fill="#F5CD8E"/>
<path d="M8.85071 5.97852C8.01191 7.00095 6.75477 7.66791 5.33203 7.66791C3.90929 7.66791 2.65215 7.00095 1.81335 5.97852C0.710277 6.95611 0 8.36696 0 9.95306V11.4765C0 11.8975 0.340691 12.2382 0.761719 12.2382H9.90234C10.3234 12.2382 10.6641 11.8975 10.6641 11.4765V9.95306C10.6641 8.36696 9.95378 6.95611 8.85071 5.97852Z" fill="#F5CD8E"/>
<path d="M20.668 0C18.9876 0 17.6211 1.41725 17.6211 3.09766C17.6211 4.77806 18.9876 6.14453 20.668 6.14453C22.3484 6.14453 23.7148 4.77806 23.7148 3.09766C23.7148 1.41725 22.3484 0 20.668 0Z" fill="#F5CD8E"/>
<path d="M24.1867 5.97852C23.3478 7.00095 22.0907 7.66791 20.668 7.66791C19.2452 7.66791 17.9881 7.00095 17.1493 5.97852C16.0462 6.95611 15.3359 8.36696 15.3359 9.95306V11.4765C15.3359 11.8975 15.6766 12.2382 16.0977 12.2382H25.2383C25.6593 12.2382 26 11.8975 26 11.4765V9.95306C26 8.36696 25.2897 6.95611 24.1867 5.97852Z" fill="#F5CD8E"/>
<path d="M13 13.7617C11.3196 13.7617 9.90234 15.1282 9.90234 16.8086C9.90234 18.489 11.3196 19.8555 13 19.8555C14.6804 19.8555 16.0977 18.489 16.0977 16.8086C16.0977 15.1282 14.6804 13.7617 13 13.7617Z" fill="#F5CD8E"/>
<path d="M16.5695 19.6895C15.7307 20.7119 14.4227 21.3788 13 21.3788C11.5773 21.3788 10.2693 20.7119 9.43054 19.6895C8.32746 20.667 7.61719 22.0779 7.61719 23.664V25.2382C7.61719 25.6592 7.95788 25.9999 8.37891 25.9999H17.6211C18.0421 25.9999 18.3828 25.6592 18.3828 25.2382V23.664C18.3828 22.0779 17.6725 20.667 16.5695 19.6895Z" fill="#F5CD8E"/>
<path d="M21.391 13.7617H19.8284C19.8565 14.0153 19.9061 14.2648 19.9061 14.5234C19.9061 16.2478 19.2402 17.8816 18.1091 19.1281C18.4625 19.5206 18.7665 19.9422 19.0189 20.3969C20.5383 18.8479 21.4296 16.7429 21.4296 14.5234C21.4296 14.2673 21.4136 14.0139 21.391 13.7617Z" fill="#F5CD8E"/>
<path d="M11.1135 6.36855C11.3952 6.81766 11.6692 7.29186 11.8396 7.79027C12.6071 7.66327 13.4437 7.66327 14.2112 7.79027C14.3816 7.29191 14.6049 6.81766 14.8865 6.36855C13.6815 6.10632 12.3186 6.10632 11.1135 6.36855Z" fill="#F5CD8E"/>
<path d="M6.09375 14.5234C6.09375 14.2648 6.14341 14.0153 6.1715 13.7617H4.60891C4.58631 14.0139 4.57031 14.2673 4.57031 14.5234C4.57031 16.7429 5.46173 18.8479 6.9811 20.3969C7.23343 19.9422 7.53751 19.5205 7.89085 19.1281C6.7597 17.8816 6.09375 16.2478 6.09375 14.5234Z" fill="#F5CD8E"/>
</svg>
