<svg width="26" height="26" viewBox="0 0 26 26" fill="none" xmlns="http://www.w3.org/2000/svg">
<path d="M14.2572 18.9145V10.074C14.2572 8.57712 13.0437 7.36365 11.5468 7.36365H2.71035C1.21347 7.36365 0 8.57712 0 10.074V18.9145C0 20.4114 1.21347 21.6248 2.71035 21.6248H11.5468C13.0437 21.6248 14.2572 20.4114 14.2572 18.9145ZM10.4767 12.1513L7.00954 17.6497C6.87131 17.8689 6.63122 18.0028 6.37213 18.0052C6.11335 18.0076 5.87046 17.8781 5.72838 17.6615L3.78808 14.7056C3.26711 13.8387 4.47408 13.0472 5.06167 13.8696L6.35233 15.8358L9.188 11.3388C9.41241 10.983 9.88279 10.8763 10.2386 11.1007C10.5944 11.3251 10.701 11.7955 10.4767 12.1513Z" fill="#F5CD8E"/>
<path d="M20.3316 6.3378H26L19.5704 0V5.57609C19.5704 5.9961 19.9119 6.3378 20.3316 6.3378Z" fill="#F5CD8E"/>
<path d="M18.047 5.57609V0H3.79993C3.37925 0 3.03821 0.341047 3.03821 0.761719V5.89098H11.5467C13.8532 5.89098 15.7297 7.76745 15.7297 10.074V18.9145C15.7297 21.221 13.8532 23.0975 11.5467 23.0975H3.03826V25.2383C3.03826 25.659 3.37931 26 3.79998 26H25.2382C25.6589 26 25.9999 25.659 25.9999 25.2383V7.86124H20.3316C19.0718 7.86124 18.047 6.83612 18.047 5.57609Z" fill="#F5CD8E"/>
</svg>
