<svg width="364" height="65" viewBox="0 0 364 65" fill="none" xmlns="http://www.w3.org/2000/svg">
<mask id="path-1-inside-1_479_562" fill="white">
<path d="M0 10C0 4.47715 4.47715 0 10 0L316.139 0H338.997C341.648 0 344.191 1.05269 346.066 2.92668L361.069 17.9197C362.946 19.7953 364 22.3398 364 24.9931V55C364 60.5229 359.523 65 354 65H10C4.47716 65 0 60.5228 0 55V29.434V10Z"/>
</mask>
<path d="M316.139 0V3V0ZM361.069 17.9197L363.189 15.7977L361.069 17.9197ZM346.066 2.92668L343.946 5.04867L346.066 2.92668ZM354 62H10V68H354V62ZM361 24.9931V55H367V24.9931H361ZM10 3H316.139V-3H10V3ZM316.139 3H338.997V-3H316.139V3ZM343.946 5.04867L358.948 20.0417L363.189 15.7977L348.187 0.804679L343.946 5.04867ZM3 55V29.434H-3V55H3ZM3 29.434V10H-3V29.434H3ZM10 62C6.13401 62 3 58.866 3 55H-3C-3 62.1797 2.82031 68 10 68V62ZM354 68C361.18 68 367 62.1797 367 55H361C361 58.866 357.866 62 354 62V68ZM367 24.9931C367 21.5438 365.629 18.236 363.189 15.7977L358.948 20.0417C360.262 21.3546 361 23.1358 361 24.9931H367ZM338.997 3C340.853 3 342.633 3.73688 343.946 5.04867L348.187 0.804679C345.749 -1.6315 342.444 -3 338.997 -3V3ZM10 -3C2.8203 -3 -3 2.8203 -3 10H3C3 6.13401 6.13401 3 10 3V-3Z" fill="#F5CD8E" mask="url(#path-1-inside-1_479_562)"/>

</svg>
