<svg width="16" height="21" viewBox="0 0 16 21" fill="none" xmlns="http://www.w3.org/2000/svg">
<path d="M15.019 12.2039C14.681 10.9532 13.8478 10.1445 12.6267 9.72092C12.6627 9.63261 12.7501 9.60671 12.8144 9.5577C13.9287 8.71015 14.4133 7.25227 14.0198 5.90581C13.7396 4.94637 13.0479 4.361 12.1925 3.93745C11.3981 3.54443 10.5478 3.33867 9.67252 3.22909C9.33036 3.18608 9.32943 3.1921 9.32943 2.83837C9.32943 1.96771 9.32296 1.09751 9.33452 0.226843C9.33729 0.0363423 9.27765 -0.00203541 9.10194 0.00120126C8.55541 0.011836 8.00795 0.0136856 7.46141 0.000276499C7.26952 -0.00434731 7.21635 0.0479018 7.21866 0.24164C7.2293 1.13496 7.21912 2.02874 7.22652 2.92206C7.22791 3.0913 7.20201 3.17036 7.00643 3.1551C6.76137 3.13568 6.51307 3.13938 6.26754 3.15418C6.09831 3.16435 6.04745 3.12043 6.0493 2.94241C6.05947 2.03337 6.04837 1.12433 6.05855 0.215746C6.0604 0.0386542 6.01092 -0.00203541 5.84076 0.00120126C5.28637 0.011836 4.73151 0.0146103 4.17712 0.000276499C3.98384 -0.0048097 3.95194 0.0631604 3.95379 0.235629C3.96165 1.12895 3.95101 2.02273 3.96257 2.91605C3.96488 3.11257 3.90616 3.15649 3.71843 3.15464C2.56294 3.14632 1.40745 3.15649 0.251961 3.14493C0.0406524 3.14262 -0.00188663 3.20504 0.00319957 3.40294C0.0175334 3.94948 0.0240067 4.4974 0.000887663 5.04347C-0.00974711 5.29177 0.0744063 5.33061 0.294962 5.3246C0.787398 5.31165 1.28168 5.30564 1.77273 5.33754C2.3054 5.37222 2.45567 5.55995 2.45567 6.08845C2.45567 8.91545 2.45613 11.7425 2.45567 14.5699C2.45567 14.6855 2.45798 14.802 2.44457 14.9162C2.3914 15.3647 2.16067 15.57 1.70985 15.5724C1.27059 15.5747 0.831325 15.5816 0.392987 15.5682C0.230691 15.5631 0.203411 15.6204 0.20526 15.7633C0.211734 16.3718 0.214508 16.9803 0.204335 17.5888C0.201561 17.7534 0.253348 17.7895 0.410095 17.7886C1.52721 17.7821 2.64386 17.7918 3.76097 17.7788C3.98153 17.7761 4.02083 17.8454 4.01852 18.047C4.00788 18.9713 4.01713 19.8956 4.01066 20.8199C4.00973 20.9619 4.04488 21.0012 4.18868 20.9993C4.75879 20.9905 5.32891 20.9882 5.89856 20.9998C6.0775 21.0035 6.13068 20.9596 6.12837 20.7737C6.11819 19.8415 6.12605 18.9094 6.12051 17.9777C6.11958 17.8343 6.14501 17.7714 6.30777 17.7807C6.56902 17.7959 6.83211 17.7978 7.09289 17.7802C7.276 17.7677 7.3042 17.8357 7.30281 18.0003C7.29495 18.9399 7.30235 19.8799 7.29588 20.8195C7.29495 20.9596 7.3264 21.0016 7.47112 20.9993C8.03338 20.9901 8.59563 20.9887 9.15789 20.9998C9.32712 21.003 9.35625 20.9471 9.35486 20.7922C9.34747 19.86 9.35625 18.9279 9.347 17.9962C9.34515 17.8214 9.39047 17.7779 9.5634 17.7812C10.3199 17.7941 11.0698 17.7303 11.8096 17.5574C14.2737 16.9812 15.6812 14.6545 15.019 12.2039ZM6.16304 5.44713C7.01521 5.4684 7.87339 5.38471 8.71631 5.58353C8.79862 5.60295 8.88092 5.62191 8.96184 5.64734C9.9222 5.94881 10.3397 6.57534 10.2107 7.51952C10.0868 8.42856 9.32666 9.12399 8.42132 9.14803C8.05973 9.15774 7.69769 9.14942 7.33564 9.14942C7.33564 9.14988 7.33564 9.14988 7.33564 9.15034C6.9662 9.15034 6.5963 9.14618 6.22685 9.15265C6.1071 9.15497 6.05115 9.13832 6.05207 8.99498C6.05808 7.86307 6.05531 6.73116 6.05623 5.59925C6.05577 5.52573 6.03497 5.44389 6.16304 5.44713ZM11.1706 13.5883C10.9542 14.563 10.2718 15.0295 9.36041 15.2422C8.89988 15.35 8.43056 15.3624 7.95986 15.3606C7.3976 15.3587 6.83488 15.3509 6.27309 15.3652C6.08305 15.3703 6.0493 15.3056 6.05161 15.134C6.06086 14.5255 6.05531 13.917 6.05531 13.3085C6.05531 12.7 6.05577 12.0915 6.05485 11.4831C6.05485 11.3887 6.03774 11.3041 6.18709 11.3087C7.17936 11.3374 8.17487 11.2514 9.16482 11.3642C9.63368 11.4179 10.0864 11.5432 10.496 11.7887C11.1383 12.1743 11.3551 12.7565 11.1706 13.5883Z" fill="#F5CD8E"/>
</svg>
