<svg width="13" height="17" viewBox="0 0 13 17" fill="none" xmlns="http://www.w3.org/2000/svg">
<path d="M4.34529 11.5192H0.881177V9.27097H5.12529C5.77529 9.20215 6.31441 8.97656 6.74265 8.59421C7.17088 8.21186 7.46529 7.71097 7.62588 7.09156H0.881177V4.84333H7.67177C7.37353 3.26803 6.35647 2.48039 4.62059 2.48039H0.881177V0.163327H12.3976V2.48039H9.53C9.83588 2.67156 10.0844 2.98509 10.2756 3.42097C10.4668 3.85686 10.5929 4.33097 10.6541 4.84333H12.3976V7.09156H10.5853C10.4018 8.11627 10.0576 8.97656 9.55294 9.67245C9.04824 10.3683 8.29118 10.8386 7.28177 11.0833L10.8835 16.1763H7.41941L4.34529 11.5192Z" fill="#F5CD8E"/>
</svg>
