<svg width="20" height="18" viewBox="0 0 20 18" fill="none" xmlns="http://www.w3.org/2000/svg">
<path d="M7.55517 17.489C7.55517 15.005 7.55517 12.5285 7.55517 10.0483C7.18454 10.0221 6.82139 10.0033 6.46199 9.96591C5.74693 9.89477 5.03187 9.82739 4.32056 9.73005C3.45949 9.61399 2.60966 9.44178 1.77854 9.17972C1.29559 9.02809 0.822008 8.85213 0.408322 8.54889C0.324087 8.48712 0.245468 8.41599 0.176208 8.33924C-0.0615208 8.07156 -0.0577773 7.77019 0.181824 7.50625C0.421425 7.24419 0.728414 7.08133 1.04851 6.94469C1.86652 6.59464 2.72571 6.39061 3.59988 6.24647C4.21386 6.14539 4.82971 6.04806 5.44743 5.98067C6.12505 5.90766 6.80455 5.8721 7.48404 5.81969C7.50463 5.81781 7.52335 5.81594 7.55143 5.8122C7.55143 5.06344 7.55143 4.32031 7.55143 3.56407C5.84427 3.56407 4.13524 3.56407 2.41685 3.56407C2.41685 2.3698 2.41685 1.18865 2.41685 0C7.16395 0 11.9073 0 16.66 0C16.66 1.18303 16.66 2.36419 16.66 3.55845C14.9491 3.55845 13.2457 3.55845 11.5348 3.55845C11.5348 4.31469 11.5348 5.05783 11.5348 5.81033C11.8193 5.82904 12.102 5.84776 12.3846 5.86648C13.7118 5.95633 15.0296 6.11544 16.3287 6.40746C17.0082 6.56095 17.6839 6.73691 18.3017 7.07197C18.5188 7.1899 18.7284 7.33965 18.9044 7.51C19.1571 7.75521 19.1496 8.06033 18.9194 8.32988C18.6854 8.60505 18.3709 8.76416 18.0489 8.90455C17.362 9.20592 16.6394 9.40434 15.9038 9.52976C15.0521 9.67576 14.1966 9.79931 13.3393 9.90413C12.7721 9.97339 12.1974 9.99398 11.6265 10.0352C11.5984 10.037 11.5704 10.0389 11.5329 10.0427C11.5329 12.5266 11.5329 15.0013 11.5329 17.4853C10.2058 17.489 8.88982 17.489 7.55517 17.489ZM7.55517 6.23711C7.52709 6.23524 7.51025 6.2315 7.49527 6.2315C6.98986 6.26332 6.48445 6.28017 5.98092 6.33258C5.27522 6.40746 4.57139 6.49918 3.86943 6.60026C3.2124 6.69573 2.5666 6.84173 1.94139 7.07572C1.68307 7.17306 1.42663 7.27975 1.22633 7.48004C1.02417 7.68221 1.02417 7.88624 1.24131 8.07343C1.36673 8.18013 1.51086 8.27372 1.65874 8.34486C2.12671 8.57323 2.6265 8.71174 3.13378 8.80347C3.83948 8.93075 4.54893 9.0412 5.26024 9.13479C5.78999 9.20405 6.32347 9.2471 6.85696 9.28267C7.44099 9.32011 8.02689 9.3407 8.61091 9.3538C9.82389 9.38375 11.0387 9.37065 12.248 9.27892C13.1708 9.20779 14.0937 9.1011 15.0109 8.9813C15.7016 8.89145 16.383 8.74357 17.04 8.50584C17.3301 8.40101 17.6222 8.2887 17.8487 8.06594C18.0471 7.8694 18.0546 7.65975 17.843 7.48192C17.6858 7.35089 17.5042 7.23483 17.3152 7.15434C16.3231 6.73691 15.2692 6.58528 14.2135 6.45051C13.6538 6.37938 13.0922 6.33633 12.5306 6.28766C12.1993 6.25958 11.8661 6.2446 11.5198 6.22401C11.5198 7.08321 11.5198 7.92555 11.5198 8.77539C10.1927 8.83903 8.87859 8.83716 7.55143 8.77726C7.55517 7.92742 7.55517 7.08508 7.55517 6.23711Z" fill="#F5CD8E"/>
</svg>
