<svg width="260" height="351" viewBox="0 0 260 351" fill="none" xmlns="http://www.w3.org/2000/svg">
<mask id="path-1-inside-1_484_1013" fill="white">
<path d="M0 20C0 8.95432 8.9543 0 20 0H172.536H207.236C212.541 0 217.628 2.10714 221.378 5.85787L253.841 38.3209C257.592 42.0716 259.699 47.1587 259.699 52.463V330.098C259.699 341.144 250.745 350.098 239.699 350.098H20C8.95432 350.098 0 341.144 0 330.098V28.6565V20Z"/>
</mask>
<path d="M253.841 38.3209L251.731 40.4316L253.841 38.3209ZM221.378 5.85787L223.489 3.74712L221.378 5.85787ZM239.699 347.113H20V353.083H239.699V347.113ZM256.714 52.463V330.098H262.684V52.463H256.714ZM20 2.98505H172.536V-2.98505H20V2.98505ZM172.536 2.98505H207.236V-2.98505H172.536V2.98505ZM219.268 7.96861L251.731 40.4316L255.952 36.2101L223.489 3.74712L219.268 7.96861ZM2.98505 330.098V28.6565H-2.98505V330.098H2.98505ZM2.98505 28.6565V20H-2.98505V28.6565H2.98505ZM20 347.113C10.6029 347.113 2.98505 339.495 2.98505 330.098H-2.98505C-2.98505 342.793 7.30573 353.083 20 353.083V347.113ZM239.699 353.083C252.393 353.083 262.684 342.793 262.684 330.098H256.714C256.714 339.496 249.096 347.113 239.699 347.113V353.083ZM262.684 52.463C262.684 46.367 260.263 40.5206 255.952 36.2101L251.731 40.4316C254.922 43.6225 256.714 47.9503 256.714 52.463H262.684ZM207.236 2.98505C211.749 2.98505 216.077 4.77769 219.268 7.96861L223.489 3.74712C219.179 -0.563414 213.332 -2.98505 207.236 -2.98505V2.98505ZM20 -2.98505C7.3057 -2.98505 -2.98505 7.30573 -2.98505 20H2.98505C2.98505 10.6029 10.6029 2.98505 20 2.98505V-2.98505Z" fill="url(#paint0_linear_484_1013)" mask="url(#path-1-inside-1_484_1013)"/>
<defs>
<linearGradient id="paint0_linear_484_1013" x1="15.2924" y1="326.346" x2="-11.2511" y2="92.6748" gradientUnits="userSpaceOnUse">
<stop stop-color="#041E27"/>
<stop offset="1" stop-color="#F5CD8E"/>
</linearGradient>
</defs>
</svg>
