<svg width="60" height="60" viewBox="0 0 60 60" fill="none" xmlns="http://www.w3.org/2000/svg">
<path d="M55.2083 4.61461C49.0555 -1.5382 39.0455 -1.5382 32.8926 4.61461L23.724 13.7831C22.1241 15.3831 20.8277 17.4243 19.9922 19.9164C19.9782 19.9211 19.9646 19.9282 19.9506 19.9329C18.0503 25.6497 19.4915 31.8663 23.724 36.0988C24.9886 37.3634 26.4765 38.4047 28.088 39.1734L28.6831 38.5783C30.7411 36.5203 30.7411 33.1978 28.6831 31.1397C25.2613 27.7179 25.2613 22.1637 28.6831 18.7421L37.8516 9.57353C41.2733 6.1518 46.8274 6.1518 50.2492 9.57353C53.6709 12.9953 53.6709 18.5494 50.2492 21.9711L43.2875 28.9328C44.2158 31.8031 44.4124 34.8425 43.9632 37.8009C44.6964 37.2898 45.4019 36.7366 46.0397 36.0988L55.2082 26.9303C61.3612 20.7775 61.3612 10.7673 55.2083 4.61461Z" fill="#F5CD8E"/>
<path d="M36.1217 23.7011C34.8571 22.4365 33.3695 21.3951 31.7331 20.6511L31.1627 21.2215C29.1047 23.2795 29.1046 26.602 31.1627 28.6602C34.5844 32.082 34.5844 37.6362 31.1627 41.0578C28.2664 43.9541 24.7328 47.4882 21.9714 50.2497C18.5496 53.6714 12.9955 53.6714 9.57377 50.2497C6.15203 46.828 6.15203 41.2739 9.57377 37.8521L16.5583 30.867C15.63 27.9968 15.4334 24.9572 15.8827 21.9989C15.1494 22.5102 14.4439 23.0632 13.8059 23.7011L4.61461 32.893C-1.5382 39.0458 -1.5382 49.0558 4.61461 55.2087C10.7674 61.3617 20.7775 61.3616 26.9304 55.2087L36.1217 46.0168C37.7216 44.4168 39.018 42.3757 39.8535 39.8835C39.8676 39.8789 39.8811 39.8717 39.8951 39.8671C41.7955 34.1502 40.3542 27.9336 36.1217 23.7011Z" fill="#F5CD8E"/>
<path d="M50.9994 48.4963L48.5198 46.0168C47.8346 45.3315 46.7255 45.3315 46.0403 46.0168C45.355 46.7021 45.355 47.8112 46.0403 48.4963L48.5198 50.9759C49.2051 51.6612 50.3142 51.6612 50.9994 50.9759C51.6845 50.2906 51.6845 49.1816 50.9994 48.4963Z" fill="#F5CD8E"/>
<path d="M13.8071 11.3035L11.3275 8.82396C10.6422 8.13868 9.53311 8.13868 8.84795 8.82396C8.16266 9.50924 8.16266 10.6183 8.84795 11.3035L11.3275 13.783C12.0127 14.4683 13.1218 14.4683 13.8071 13.783C14.4924 13.0977 14.4924 11.9886 13.8071 11.3035Z" fill="#F5CD8E"/>
<path d="M57.4732 35.4667L54.0856 34.5586C53.1497 34.3079 52.1884 34.8625 51.9378 35.7984C51.687 36.74 52.248 37.6974 53.1776 37.9463L56.5652 38.8543C57.5011 39.1049 58.4624 38.5504 58.713 37.6145C58.9611 36.6786 58.409 35.7125 57.4732 35.4667Z" fill="#F5CD8E"/>
<path d="M6.66757 21.8537L3.27995 20.9456C2.34404 20.695 1.38278 21.2495 1.13215 22.1854C0.881291 23.1268 1.44225 24.0843 2.37197 24.3332L5.75959 25.2413C6.6955 25.4919 7.65676 24.9374 7.90739 24.0015C8.15673 23.0644 7.59986 22.0981 6.66757 21.8537Z" fill="#F5CD8E"/>
<path d="M38.8773 56.5426L37.9693 53.155C37.7175 52.2155 36.7574 51.6646 35.8215 51.9152C34.8856 52.1658 34.3311 53.1271 34.5817 54.063L35.4898 57.4506C35.7387 58.3803 36.6962 58.9412 37.6376 58.6904C38.5735 58.4398 39.1279 57.4785 38.8773 56.5426Z" fill="#F5CD8E"/>
<path d="M25.2641 5.73661L24.356 2.34899C24.1066 1.40946 23.1441 0.861003 22.2082 1.10918C21.2723 1.3598 20.7178 2.32107 20.9684 3.25698L21.8765 6.6446C21.9588 6.95213 22.1187 7.21853 22.3293 7.4292C22.7579 7.85778 23.3971 8.0515 24.0242 7.88442C24.9602 7.6339 25.5148 6.67252 25.2641 5.73661Z" fill="#F5CD8E"/>
</svg>
