<svg width="64" height="60" viewBox="0 0 64 60" fill="none" xmlns="http://www.w3.org/2000/svg">
<path d="M31.9057 0.00012207C27.7815 0.00012207 24.4277 3.35384 24.4277 7.47804C24.4277 11.6022 27.7815 14.956 31.9057 14.956C36.0299 14.956 39.3836 11.6022 39.3836 7.47804C39.3836 3.35384 36.0299 0.00012207 31.9057 0.00012207Z" fill="#F5CD8E"/>
<path d="M52.4682 33.6508C48.344 33.6508 44.9902 37.0045 44.9902 41.1287C44.9902 45.2529 48.344 48.6066 52.4682 48.6066C56.5924 48.6066 59.9461 45.2529 59.9461 41.1287C59.9461 37.0045 56.5924 33.6508 52.4682 33.6508Z" fill="#F5CD8E"/>
<path d="M61.0338 48.2864C58.9746 50.746 55.9212 52.3458 52.4698 52.3458C49.0184 52.3458 45.965 50.746 43.9058 48.2864C42.2748 50.0993 41.2529 52.4718 41.2529 55.097V57.9542C41.2529 58.9875 42.0891 59.8237 43.1224 59.8237H61.9418C62.9752 59.8237 63.8113 58.9875 63.8113 57.9542V55.097C63.8113 52.4718 62.6648 50.0993 61.0338 48.2864Z" fill="#F5CD8E"/>
<path d="M11.3402 33.6508C7.21603 33.6508 3.8623 37.0045 3.8623 41.1287C3.8623 45.2529 7.21603 48.6066 11.3402 48.6066C15.4644 48.6066 18.8181 45.2529 18.8181 41.1287C18.8181 37.0045 15.4644 33.6508 11.3402 33.6508Z" fill="#F5CD8E"/>
<path d="M19.9055 48.2864C17.8463 50.746 14.7929 52.3458 11.3415 52.3458C7.89008 52.3458 4.83672 50.746 2.77755 48.2864C1.14649 50.0993 0 52.4718 0 55.097V57.9542C0 58.9875 0.836156 59.8237 1.86948 59.8237H20.6889C21.7222 59.8237 22.5584 58.9875 22.5584 57.9542V55.097C22.5584 52.4718 21.5365 50.0993 19.9055 48.2864Z" fill="#F5CD8E"/>
<path d="M41.2528 26.173C42.2861 26.173 43.1222 25.3369 43.1222 24.3036V21.4464C43.1222 18.8211 42.1004 16.4486 40.4693 14.6357C38.4101 17.0954 35.3568 18.6951 31.9054 18.6951C28.4539 18.6951 25.4006 17.0954 23.3414 14.6357C21.7103 16.4486 20.6885 18.8211 20.6885 21.4464V24.3036C20.6885 25.3369 21.5246 26.173 22.558 26.173H30.0359V38.0924L22.492 41.7816C22.3882 43.5502 21.8766 45.1963 21.0441 46.6525L31.8963 41.3452L42.8628 46.8291C41.9871 45.3591 41.4508 43.6825 41.3288 41.8813L33.7748 38.1038V26.173H41.2528Z" fill="#F5CD8E"/>
</svg>
