<svg width="50" height="60" viewBox="0 0 50 60" fill="none" xmlns="http://www.w3.org/2000/svg">
<path d="M42.2979 14.0211C43.2621 12.6854 43.816 11.0435 43.816 9.23057C43.816 4.39854 39.8848 0.467371 35.0528 0.467371C31.2689 0.467371 28.038 2.8783 26.8141 6.24442C26.1247 5.91177 25.3523 5.72529 24.537 5.72529C23.7747 5.72529 23.0506 5.88969 22.3961 6.18273C21.2919 2.60618 17.9553 0 14.0211 0C9.18909 0 5.25792 3.93117 5.25792 8.7632C5.25792 10.7345 5.91282 12.5554 7.0157 14.0211H0V31.0802H3.50528V59.8234H45.5686V31.0802H49.0739V14.0211H42.2979ZM29.7949 9.23057C29.7949 6.33135 32.1536 3.97265 35.0528 3.97265C37.952 3.97265 40.3107 6.33135 40.3107 9.23057C40.3107 12.0064 38.0995 14.0211 35.0528 14.0211H29.7949V9.23057ZM29.7949 17.5264H33.3002V37.8321L31.5475 36.0795L29.7949 37.8321V17.5264ZM22.7843 10.9832C22.7843 10.0168 23.5706 9.23057 24.537 9.23057C25.5034 9.23057 26.2896 10.0168 26.2896 10.9832V14.0211H22.7843V10.9832ZM22.7843 17.5264H26.2896V27.5749H22.7843V17.5264ZM14.0211 3.50528C16.9203 3.50528 19.279 5.86398 19.279 8.7632V14.0211H14.0211C11.1219 14.0211 8.7632 11.6624 8.7632 8.7632C8.7632 5.86398 11.1219 3.50528 14.0211 3.50528ZM19.279 17.5264V37.8321L17.5264 36.0795L15.7738 37.8321V17.5264H19.279ZM3.50528 17.5264H12.2685V27.5749H3.50528V17.5264ZM42.0634 56.3182H7.01056V31.0802H12.2685V46.2946L17.5264 41.0367L22.7843 46.2946V31.0802H26.2896V46.2946L31.5475 41.0367L36.8054 46.2946V31.0802H42.0634V56.3182ZM45.5686 27.5749H36.8054V17.5264H45.5686V27.5749Z" fill="#F5CD8E"/>
</svg>
