 <svg width="37" height="37" viewBox="0 0 37 37" fill="none" xmlns="http://www.w3.org/2000/svg">
<circle cx="18.5" cy="18.5" r="18" transform="matrix(1 0 0 -1 0 37)" stroke="white"/>
<path d="M14.575 15.25C14.4083 15.6833 14.225 16.0833 14.025 16.45C13.825 16.8333 13.6 17.1917 13.35 17.525L26.75 17.525L26.75 19.575L13.35 19.575C13.5833 19.9083 13.8 20.2583 14 20.625C14.2 21.0083 14.3833 21.4167 14.55 21.85L12.65 21.85C11.6167 20.6333 10.4833 19.7083 9.25 19.075L9.25 18C10.4833 17.4 11.6167 16.4833 12.65 15.25L14.575 15.25Z" fill="white"/>
</svg>
