<?xml version="1.0" encoding="utf-8"?>
<!-- Generator: Adobe Illustrator 26.2.1, SVG Export Plug-In . SVG Version: 6.00 Build 0)  -->
<svg version="1.1" id="Layer_1" xmlns="http://www.w3.org/2000/svg" xmlns:xlink="http://www.w3.org/1999/xlink" x="0px" y="0px"
	 viewBox="0 0 682.9 934.7" style="enable-background:new 0 0 682.9 934.7;" xml:space="preserve">
<style type="text/css">
	.st0{fill:#00090C;fill-opacity:0.25;}
	.st1{fill:none;stroke:url(#SVGID_1_);stroke-width:2;}
</style>
<g>
	<path class="st0" d="M51.7,14.1h575.3c21.4,0,38.7,14.7,38.7,32.8v837.7c0,18.1-17.3,32.8-38.7,32.8H51.7
		c-21.4,0-38.7-14.7-38.7-32.8V46.9C13,28.8,30.3,14.1,51.7,14.1z"/>
	
		<linearGradient id="SVGID_1_" gradientUnits="userSpaceOnUse" x1="339.2983" y1="811.8126" x2="339.2983" y2="-91.3494" gradientTransform="matrix(1 0 0 -1 0 826)">
		<stop  offset="0" style="stop-color:#DC04FF"/>
		<stop  offset="1" style="stop-color:#00BFFF"/>
	</linearGradient>
	<path class="st1" d="M51.7,15.2h575.3c20.7,0,37.4,14.2,37.4,31.8v837.7c0,17.5-16.7,31.8-37.4,31.8H51.7
		c-20.7,0-37.4-14.2-37.4-31.8V46.9C14.3,29.4,31,15.2,51.7,15.2z"/>
</g>
</svg>
