<?xml version="1.0" encoding="utf-8"?>
<!-- Generator: Adobe Illustrator 26.2.1, SVG Export Plug-In . SVG Version: 6.00 Build 0)  -->
<svg version="1.1" id="Layer_1" xmlns="http://www.w3.org/2000/svg" xmlns:xlink="http://www.w3.org/1999/xlink" x="0px" y="0px"
	 viewBox="0 0 616.4 865.8" style="enable-background:new 0 0 616.4 865.8;" xml:space="preserve">
<style type="text/css">
	.st0{fill:#00090C;fill-opacity:0.25;}
	.st1{fill:none;stroke:url(#SVGID_1_);stroke-width:2;}
</style>
<g>
	<path class="st0" d="M36.4,0h541.3c20.1,0,36.4,14.1,36.4,31.5v802.8c0,17.4-16.3,31.5-36.4,31.5H36.4C16.3,865.8,0,851.7,0,834.3
		V31.5C0,14.1,16.3,0,36.4,0z"/>
	
		<linearGradient id="SVGID_1_" gradientUnits="userSpaceOnUse" x1="307.6179" y1="-33.9506" x2="307.6179" y2="831.7419" gradientTransform="matrix(1 0 0 1 0 34)">
		<stop  offset="0.38" style="stop-color:#F5CD8E"/>
		<stop  offset="0.66" style="stop-color:#0C5866"/>
	</linearGradient>
	<path class="st1" d="M36.3,1h542.5c19.5,0,35.3,13.6,35.3,30.4v802.8c0,16.8-15.8,30.4-35.3,30.4H36.3c-19.5,0-35.3-13.6-35.3-30.4
		V31.5C1.1,14.7,16.9,1,36.3,1z"/>
</g>
</svg>
