<svg width="71" height="89" viewBox="0 0 71 89" fill="none" xmlns="http://www.w3.org/2000/svg">
<path d="M31.5444 89C23.0303 89 14.514 89 5.99987 89C5.92444 88.9606 5.8513 88.905 5.7713 88.8864C2.00681 87.9524 0.0182853 85.3913 0.013714 81.4605C0.00685699 75.7543 0 70.0458 0 64.3396C0 61.6812 1.00798 60.5478 3.61135 60.3323C3.61135 60.0263 3.61135 59.7134 3.61135 59.3982C3.61135 54.6191 3.59535 49.8377 3.6182 45.0586C3.6342 41.9598 5.89015 39.6908 8.93466 39.656C10.3632 39.6398 11.7917 39.6537 13.2203 39.6537C13.9174 39.6537 14.6168 39.6537 15.1974 39.6537C14.738 37.7184 14.0431 35.892 13.9174 34.024C13.6774 30.4755 13.6751 26.904 13.7505 23.3463C13.7963 21.1862 14.002 19.0006 14.4317 16.8868C15.5471 11.4147 18.1847 6.86737 23.0646 4.00268C29.1376 0.440365 35.6426 0.190052 42.3076 1.82172C44.0219 2.24122 45.6744 3.01997 47.4047 3.26333C51.2628 3.80799 54.4491 1.8843 57.6033 0C58.0033 0 58.4033 0 58.8032 0C59.6741 0.546979 60.0444 1.3999 60.1175 2.38029C60.1678 3.03852 60.2341 3.74773 60.0512 4.36193C59.4272 6.46177 58.7004 8.52917 58.0078 10.6058C57.8981 10.9373 57.7678 11.2617 57.6467 11.5885C57.7084 11.6488 57.7724 11.7114 57.8341 11.7716C59.3541 10.9906 60.8786 10.2118 62.394 9.4238C63.6374 8.77716 64.8534 8.07721 66.1174 7.47693C66.9379 7.08755 67.8019 7.10146 68.5242 7.76432C69.2464 8.42487 69.3287 9.27547 69.0499 10.1608C68.4762 11.9779 67.9642 13.8205 67.2625 15.5866C65.4865 20.0598 62.9654 23.9512 58.625 26.3315C58.4261 26.4404 58.289 26.8344 58.2821 27.0986C58.2501 28.6052 58.2501 30.1117 58.2707 31.6182C58.305 34.2047 57.7953 36.6777 56.8124 39.0557C54.9245 43.6216 51.9554 47.3392 48.1475 50.3986C47.9052 50.5933 47.5715 50.9177 47.5898 51.1588C47.6675 52.1438 47.9715 53.0431 49.0458 53.3861C50.296 53.7871 51.5348 54.2228 52.7965 54.5843C59.6787 56.5683 64.8534 60.5548 67.4568 67.5033C69.2396 72.2615 70.1653 77.2469 70.9058 82.2508C71.3973 85.5675 69.939 87.7762 67.1413 88.5782C66.5425 88.7497 65.9254 88.8586 65.3151 88.9977C58.8581 88.9977 52.3988 88.9977 45.9418 88.9977C44.8813 88.2004 44.5864 87.5746 44.8721 86.7124C45.1647 85.8294 45.7521 85.5072 47.0801 85.5072C48.7029 85.5072 50.3234 85.5072 52.056 85.5072C52.056 85.1178 52.056 84.8049 52.056 84.4944C52.0583 82.814 52.0377 81.1337 52.072 79.4557C52.0925 78.4104 52.7645 77.7267 53.7017 77.6919C54.6685 77.6571 55.441 78.3432 55.4913 79.3977C55.5462 80.5543 55.5096 81.7131 55.5119 82.872C55.5142 83.7295 55.5119 84.5848 55.5119 85.4145C58.7713 85.4145 61.9072 85.4191 65.0431 85.4075C65.354 85.4075 65.6694 85.345 65.9734 85.2708C67.1322 84.9857 67.4979 84.5291 67.5231 83.3286C67.5299 82.9554 67.5231 82.5684 67.4453 82.2045C66.6751 78.5587 65.9757 74.8921 65.0797 71.2765C64.3734 68.4257 63.162 65.7696 61.2123 63.5214C58.5815 60.4899 55.1553 58.886 51.4068 57.8199C50.7234 57.6252 50.3966 57.704 49.9692 58.3298C45.8847 64.3141 40.2871 66.9169 33.1353 65.867C32.1113 65.7163 31.1147 65.3802 30.0382 65.1114C30.0382 65.5054 30.0382 65.8229 30.0382 66.1381C30.0382 69.4107 30.0496 72.6833 30.0359 75.9583C30.0222 79.3583 27.8599 81.5208 24.4932 81.5347C23.2749 81.5393 22.0544 81.5347 20.8018 81.5347C20.8018 82.8975 20.8018 84.1537 20.8018 85.5072C21.1538 85.5072 21.4601 85.5072 21.7664 85.5072C24.8223 85.5072 27.8805 85.4979 30.9365 85.5118C32.2598 85.5188 33.1398 86.5571 32.7101 87.716C32.5227 88.2236 31.9444 88.5782 31.5444 89ZM54.7051 27.7777C54.4582 27.7963 54.2068 27.8264 53.9554 27.8357C52.2205 27.9029 50.4697 28.1416 48.7532 27.9863C46.2892 27.7615 43.8367 27.3188 41.4048 26.8437C36.9272 25.9699 32.4907 24.8551 27.9925 24.1273C24.5092 23.5641 21.0395 23.9327 17.8579 25.7544C17.387 26.0232 17.1585 26.3222 17.1745 26.9086C17.2179 28.4429 17.2133 29.9772 17.1836 31.5116C17.1333 34.1792 17.8213 36.6522 18.955 39.0325C19.1927 39.5308 19.483 39.6792 20.0041 39.6676C21.5447 39.6351 23.0875 39.6467 24.6303 39.6583C27.8005 39.6792 30.0016 41.9018 30.0359 45.1235C30.0519 46.5998 30.013 48.0785 30.0633 49.5526C30.0725 49.8446 30.3079 50.2757 30.5547 50.3893C33.4484 51.7289 36.4106 52.1971 39.5283 51.1495C44.8333 49.3695 48.7349 45.8396 51.8274 41.2436C54.5748 37.1598 55.2239 32.6264 54.7051 27.7777ZM17.1882 22.1527C21.1538 20.2892 25.1812 20.1386 29.2405 20.7249C32.0039 21.1236 34.7375 21.7471 37.4666 22.3497C41.5351 23.2466 45.551 24.4147 49.7452 24.6002C54.0445 24.7902 57.8273 23.6453 60.7072 20.2035C62.2203 18.3957 63.2969 16.3306 64.1471 14.1357C64.3917 13.5053 64.6134 12.8679 64.9083 12.0567C63.7014 12.701 62.7049 13.2596 61.6855 13.7695C59.681 14.7731 57.6284 15.6422 55.3359 15.6445C53.4639 15.6468 52.728 14.5552 53.4114 12.8123C54.1496 10.9326 54.9062 9.05992 55.6353 7.17562C55.9325 6.40615 56.1793 5.61812 56.5062 4.67714C56.0467 4.87182 55.7633 4.97612 55.4936 5.10823C51.5028 7.05047 47.4549 7.53951 43.2447 5.78964C40.9271 4.82779 38.4677 4.44768 35.9626 4.40596C31.8987 4.33411 27.9651 4.91354 24.484 7.20807C19.2361 10.6707 17.5745 15.9899 17.1882 22.1527ZM20.7561 78.0488C21.9926 78.0488 23.1309 78.0511 24.2669 78.0488C26.0223 78.0465 26.5914 77.481 26.5914 75.7218C26.5937 65.6421 26.5937 55.5601 26.5914 45.4804C26.5914 43.7328 26.0108 43.1557 24.26 43.1557C19.3184 43.1534 14.3745 43.1534 9.43293 43.1557C7.66383 43.1557 7.06727 43.7607 7.06498 45.5546C7.0627 50.5376 7.07641 55.5184 7.04899 60.5015C7.04441 61.1713 7.19527 61.5004 7.87411 61.7461C10.3929 62.6546 11.3095 64.0661 11.3117 66.7917C11.3117 67.5311 11.3117 68.2704 11.3117 69.0445C13.5083 69.0445 15.5654 69.026 17.6202 69.0492C19.5904 69.0723 20.747 70.2775 20.7561 72.2708C20.7607 74.1504 20.7561 76.0301 20.7561 78.0488ZM3.46049 63.9456C3.46049 69.9461 3.45592 75.7659 3.46278 81.588C3.46507 84.0749 4.89818 85.5049 7.37126 85.5095C10.3998 85.5142 13.4283 85.5118 16.4568 85.5118C16.7288 85.5118 17.0008 85.5118 17.2568 85.5118C17.2568 81.1314 17.2568 76.8876 17.2568 72.5628C16.8933 72.5628 16.5848 72.5651 16.2739 72.5628C14.4751 72.5512 12.674 72.579 10.8752 72.5211C8.95294 72.4585 7.96096 71.4202 7.88782 69.4617C7.85125 68.479 7.83525 67.4917 7.87411 66.5066C7.90154 65.8252 7.64326 65.3826 7.0307 65.167C5.87873 64.7568 4.71989 64.372 3.46049 63.9456ZM30.0405 53.9539C30.0405 56.2554 30.0633 58.3668 30.0268 60.4783C30.0176 61.0415 30.2302 61.3034 30.7102 61.5027C35.0301 63.3012 39.1854 63.0139 43.1419 60.4667C44.7647 59.4214 46.0698 58.0377 47.0641 56.4571C46.4447 55.8939 45.8207 55.4558 45.3681 54.881C44.9201 54.3109 44.6481 53.6016 44.2779 52.9133C39.7431 55.3376 35.0712 56.1303 30.0405 53.9539Z" fill="url(#paint0_linear_111_2584)"/>
<defs>
<linearGradient id="paint0_linear_111_2584" x1="-4.5" y1="5.5" x2="74.5" y2="93" gradientUnits="userSpaceOnUse">
<stop stop-color="#00BFFF"/>
<stop offset="1" stop-color="#DC04FF"/>
</linearGradient>
</defs>
</svg>
