<svg width="1512" height="982" viewBox="0 0 1512 982" fill="none" xmlns="http://www.w3.org/2000/svg">
<g clip-path="url(#clip0_126_2868)">
<rect width="1512" height="982" fill="#00090C"/>
<circle cx="391.75" cy="-34.25" r="534.951" transform="rotate(-25.261 391.75 -34.25)" fill="url(#paint0_radial_126_2868)"/>
<circle cx="1125.18" cy="1118.18" r="534.951" transform="rotate(127.761 1125.18 1118.18)" fill="url(#paint1_radial_126_2868)"/>
<g filter="url(#filter0_b_126_2868)">
 </g>

<mask id="path-14-inside-1_126_2868" fill="white">
<path d="M574 649C574 643.477 578.477 639 584 639L890.139 639H912.997C915.648 639 918.191 640.053 920.066 641.927L935.069 656.92C936.946 658.795 938 661.34 938 663.993V694C938 699.523 933.523 704 928 704H584C578.477 704 574 699.523 574 694V668.434V649Z"/>
</mask>

</g>
<defs>
<filter id="filter0_b_126_2868" x="499" y="75" width="514" height="833" filterUnits="userSpaceOnUse" color-interpolation-filters="sRGB">
<feFlood flood-opacity="0" result="BackgroundImageFix"/>
<feGaussianBlur in="BackgroundImageFix" stdDeviation="2"/>
<feComposite in2="SourceAlpha" operator="in" result="effect1_backgroundBlur_126_2868"/>
<feBlend mode="normal" in="SourceGraphic" in2="effect1_backgroundBlur_126_2868" result="shape"/>
</filter>
<radialGradient id="paint0_radial_126_2868" cx="0" cy="0" r="1" gradientUnits="userSpaceOnUse" gradientTransform="translate(430.043 -243.509) rotate(92.5147) scale(657.806)">
<stop stop-color="#0C5866"/>
<stop offset="1" stop-color="#00090C"/>
</radialGradient>
<radialGradient id="paint1_radial_126_2868" cx="0" cy="0" r="1" gradientUnits="userSpaceOnUse" gradientTransform="translate(1145.15 1143.42) rotate(35.0063) scale(548.939 484.491)">
<stop stop-color="#0C5866" stop-opacity="0"/>
<stop offset="1" stop-color="#00090C"/>
</radialGradient>
<linearGradient id="paint2_linear_126_2868" x1="756" y1="79" x2="756" y2="904" gradientUnits="userSpaceOnUse">
<stop offset="0.38" stop-color="#F5CD8E"/>
<stop offset="0.66" stop-color="#0C5866"/>
</linearGradient>
<linearGradient id="paint3_linear_126_2868" x1="580.825" y1="635" x2="782.632" y2="787.238" gradientUnits="userSpaceOnUse">
<stop stop-color="#F5CD8E"/>
<stop offset="1" stop-color="#EFAE48"/>
</linearGradient>
<clipPath id="clip0_126_2868">
<rect width="1512" height="982" fill="white"/>
</clipPath>
</defs>
</svg>
