<svg width="183" height="183" viewBox="0 0 183 183" fill="none" xmlns="http://www.w3.org/2000/svg">
<path d="M96.5881 182.478C93.0225 182.478 89.457 182.478 85.8984 182.478C85.4414 182.374 84.9845 182.215 84.5206 182.187C70.2446 181.183 56.8963 177.099 44.7112 169.635C21.0748 155.151 6.52875 134.271 1.41929 106.951C0.782342 103.531 0.463867 100.055 0 96.6004C0 93.0349 0 89.4762 0 85.9107C0.110774 85.2807 0.235395 84.6507 0.325399 84.0206C0.893116 80.0951 1.21852 76.1141 2.06317 72.244C6.83338 50.3315 18.0839 32.3791 35.9324 18.8647C58.1287 2.04778 83.136 -3.53246 110.4 2.15163C132.223 6.70029 149.967 18.1377 163.537 35.7785C178.194 54.8247 184.287 76.5157 181.995 100.387C180.139 119.731 172.628 136.804 159.736 151.385C145.606 167.364 127.999 177.32 106.966 181.066C103.525 181.675 100.05 182.014 96.5881 182.478ZM91.1948 16.6353C50.0907 16.7115 16.6923 50.103 16.6092 91.2071C16.5192 132.235 50.2499 165.952 91.2848 165.876C132.389 165.793 165.787 132.408 165.877 91.304C165.96 50.2761 132.23 16.5523 91.1948 16.6353Z" fill="url(#paint0_linear_151_3227)"/>
<path d="M78.4199 106.431C79.2299 105.434 79.6315 104.838 80.1369 104.333C94.9944 89.4613 109.866 74.5968 124.737 59.7323C128.074 56.4021 131.834 55.689 135.365 57.676C139.726 60.1338 140.931 65.8041 137.912 69.8058C137.379 70.512 136.756 71.1559 136.126 71.7859C119.247 88.672 102.368 105.551 85.4817 122.43C80.7669 127.145 76.3082 127.145 71.6003 122.437C62.9876 113.832 54.368 105.233 45.7761 96.6062C42.2313 93.0476 41.9129 88.4228 44.883 84.9265C47.7839 81.5133 52.7064 81.0078 56.2374 83.7841C56.8881 84.2964 57.4905 84.878 58.079 85.4665C64.4277 91.8014 70.7695 98.1363 77.0975 104.499C77.5475 104.963 77.8452 105.579 78.4199 106.431Z" fill="url(#paint1_linear_151_3227)"/>
<defs>
<linearGradient id="paint0_linear_151_3227" x1="4.04678e-07" y1="19.4407" x2="178.854" y2="186.63" gradientUnits="userSpaceOnUse">
<stop stop-color="#00BFFF"/>
<stop offset="1" stop-color="#DC04FF"/>
</linearGradient>
<linearGradient id="paint1_linear_151_3227" x1="42.8654" y1="63.968" x2="108.715" y2="149.768" gradientUnits="userSpaceOnUse">
<stop stop-color="#00BFFF"/>
<stop offset="1" stop-color="#DC04FF"/>
</linearGradient>
</defs>
</svg>
