<svg width="13" height="17" viewBox="0 0 13 17" fill="none" xmlns="http://www.w3.org/2000/svg">
<path d="M11.9199 9.68564C11.6516 8.69299 10.9903 8.05116 10.0212 7.71502C10.0498 7.64492 10.1191 7.62437 10.1702 7.58548C11.0546 6.91282 11.4391 5.75577 11.1268 4.68715C10.9045 3.92569 10.3555 3.46111 9.67659 3.12496C9.04613 2.81304 8.37127 2.64974 7.6766 2.56277C7.40504 2.52864 7.40431 2.53341 7.40431 2.25268C7.40431 1.56167 7.39917 0.871038 7.40835 0.180034C7.41055 0.0288431 7.36321 -0.0016154 7.22376 0.000953383C6.79 0.00939368 6.35551 0.0108616 5.92175 0.000219444C5.76946 -0.00345025 5.72726 0.0380173 5.7291 0.191777C5.73754 0.900762 5.72946 1.61011 5.73533 2.3191C5.73644 2.45341 5.71588 2.51616 5.56066 2.50405C5.36616 2.48864 5.1691 2.49157 4.97424 2.50332C4.83993 2.51139 4.79956 2.47653 4.80103 2.33525C4.8091 1.61378 4.8003 0.892322 4.80837 0.171227C4.80984 0.0306779 4.77057 -0.0016154 4.63553 0.000953383C4.19553 0.00939368 3.75517 0.0115955 3.31517 0.000219444C3.16178 -0.00381722 3.13646 0.0501273 3.13793 0.187007C3.14416 0.895992 3.13572 1.60534 3.1449 2.31433C3.14673 2.47029 3.10013 2.50515 2.95114 2.50368C2.03408 2.49708 1.11703 2.50515 0.199969 2.49598C0.0322638 2.49414 -0.00149732 2.54368 0.00253934 2.70075C0.0139154 3.1345 0.019053 3.56936 0.000704495 4.00275C-0.0077358 4.19982 0.0590526 4.23064 0.234097 4.22587C0.624919 4.2156 1.01721 4.21083 1.40693 4.23615C1.82968 4.26367 1.94894 4.41266 1.94894 4.8321C1.94894 7.07576 1.94931 9.31941 1.94894 11.5634C1.94894 11.6552 1.95078 11.7476 1.94014 11.8383C1.89794 12.1942 1.71482 12.3572 1.35702 12.359C1.0084 12.3608 0.659781 12.3664 0.311894 12.3557C0.183088 12.3517 0.161437 12.3972 0.162905 12.5106C0.168043 12.9935 0.170244 13.4764 0.162171 13.9594C0.159969 14.09 0.20107 14.1186 0.325472 14.1179C1.21207 14.1128 2.0983 14.1205 2.9849 14.1102C3.15994 14.108 3.19114 14.163 3.1893 14.323C3.18086 15.0566 3.1882 15.7902 3.18306 16.5237C3.18233 16.6364 3.21022 16.6676 3.32435 16.6661C3.77682 16.6592 4.22929 16.6573 4.6814 16.6665C4.82342 16.6694 4.86562 16.6346 4.86378 16.4871C4.85571 15.7472 4.86195 15.0074 4.85754 14.268C4.85681 14.1542 4.87699 14.1043 5.00617 14.1117C5.2135 14.1238 5.42231 14.1252 5.62928 14.1113C5.7746 14.1014 5.79699 14.1553 5.79588 14.286C5.78965 15.0317 5.79552 15.7777 5.79038 16.5234C5.78965 16.6346 5.8146 16.668 5.92946 16.6661C6.3757 16.6588 6.82193 16.6577 7.26816 16.6665C7.40248 16.6691 7.42559 16.6247 7.42449 16.5017C7.41862 15.7619 7.4256 15.0221 7.41826 14.2827C7.41679 14.144 7.45275 14.1095 7.59 14.112C8.19036 14.1223 8.78558 14.0717 9.37273 13.9344C11.3283 13.4772 12.4454 11.6306 11.9199 9.68564ZM4.8913 4.32312C5.56763 4.34 6.24872 4.27358 6.91771 4.43137C6.98303 4.44679 7.04835 4.46183 7.11257 4.48202C7.87477 4.72128 8.20614 5.21852 8.10375 5.96787C8.00541 6.68934 7.40211 7.24126 6.68358 7.26034C6.39661 7.26805 6.10928 7.26144 5.82194 7.26144C5.82194 7.26181 5.82194 7.26181 5.82194 7.26218C5.52873 7.26218 5.23515 7.25887 4.94195 7.26401C4.8469 7.26585 4.8025 7.25263 4.80323 7.13887C4.808 6.24053 4.8058 5.34219 4.80654 4.44385C4.80617 4.3855 4.78965 4.32055 4.8913 4.32312ZM8.86558 10.7843C8.69384 11.5579 8.15219 11.9282 7.4289 12.097C7.0634 12.1825 6.69092 12.1924 6.31735 12.1909C5.87111 12.1895 5.42451 12.1832 4.97864 12.1946C4.82782 12.1986 4.80103 12.1473 4.80287 12.0111C4.8102 11.5282 4.8058 11.0453 4.8058 10.5623C4.8058 10.0794 4.80617 9.59647 4.80543 9.11354C4.80543 9.03867 4.79186 8.97152 4.91039 8.97519C5.6979 8.99794 6.48799 8.92968 7.27367 9.01923C7.64578 9.06179 8.00504 9.16124 8.33017 9.3561C8.83989 9.66216 9.012 10.1242 8.86558 10.7843Z" fill="white"/>
</svg>
