<svg width="19" height="23" viewBox="0 0 19 23" fill="none" xmlns="http://www.w3.org/2000/svg">
<path d="M6.89106 5.95476H1.68084C1.26977 5.95476 0.936523 6.288 0.936523 6.69907V18.6082C0.936523 19.0192 1.26977 19.3525 1.68084 19.3525H6.89106C7.30214 19.3525 7.63538 19.0192 7.63538 18.6082V6.69907C7.63538 6.288 7.30214 5.95476 6.89106 5.95476Z" fill="white"/>
<path d="M17.312 3.72163H12.1017C11.6907 3.72163 11.3574 4.05488 11.3574 4.46595V16.375C11.3574 16.7861 11.6907 17.1193 12.1017 17.1193H17.312C17.723 17.1193 18.0563 16.7861 18.0563 16.375V4.46595C18.0563 4.05488 17.723 3.72163 17.312 3.72163Z" fill="white"/>
<path d="M4.28533 22.3297C4.18757 22.3297 4.09076 22.3105 4.00043 22.2731C3.9101 22.2358 3.82802 22.1809 3.7589 22.1118C3.68977 22.0427 3.63495 21.9606 3.59756 21.8703C3.56017 21.7799 3.54096 21.6831 3.54102 21.5854V18.6081C3.54102 18.4107 3.61943 18.2214 3.75902 18.0818C3.89861 17.9422 4.08793 17.8638 4.28533 17.8638C4.48274 17.8638 4.67206 17.9422 4.81164 18.0818C4.95123 18.2214 5.02965 18.4107 5.02965 18.6081V21.5854C5.02971 21.6831 5.01049 21.7799 4.97311 21.8703C4.93572 21.9606 4.8809 22.0427 4.81177 22.1118C4.74264 22.1809 4.66057 22.2358 4.57024 22.2731C4.47991 22.3105 4.38309 22.3297 4.28533 22.3297Z" fill="white"/>
<path d="M4.28533 7.44336C4.18757 7.44341 4.09076 7.4242 4.00043 7.38681C3.9101 7.34943 3.82802 7.2946 3.7589 7.22548C3.68977 7.15635 3.63495 7.07427 3.59756 6.98394C3.56017 6.89361 3.54096 6.7968 3.54102 6.69904V0.7445C3.54102 0.547095 3.61943 0.357775 3.75902 0.218189C3.89861 0.078602 4.08793 0.000183105 4.28533 0.000183105C4.48274 0.000183105 4.67206 0.078602 4.81164 0.218189C4.95123 0.357775 5.02965 0.547095 5.02965 0.7445V6.69904C5.02971 6.7968 5.01049 6.89361 4.97311 6.98394C4.93572 7.07427 4.8809 7.15635 4.81177 7.22548C4.74264 7.2946 4.66057 7.34943 4.57024 7.38681C4.47991 7.4242 4.38309 7.44341 4.28533 7.44336Z" fill="white"/>
<path d="M14.7082 5.2104C14.6104 5.21046 14.5136 5.19125 14.4233 5.15386C14.333 5.11647 14.2509 5.06165 14.1817 4.99252C14.1126 4.9234 14.0578 4.84132 14.0204 4.75099C13.983 4.66066 13.9638 4.56385 13.9639 4.46609V0.7445C13.9639 0.547095 14.0423 0.357775 14.1819 0.218189C14.3215 0.078602 14.5108 0.000183105 14.7082 0.000183105C14.9056 0.000183105 15.0949 0.078602 15.2345 0.218189C15.3741 0.357775 15.4525 0.547095 15.4525 0.7445V4.46609C15.4526 4.56385 15.4333 4.66066 15.396 4.75099C15.3586 4.84132 15.3037 4.9234 15.2346 4.99252C15.1655 5.06165 15.0834 5.11647 14.9931 5.15386C14.9028 5.19125 14.8059 5.21046 14.7082 5.2104Z" fill="white"/>
<path d="M14.7082 22.3297C14.6104 22.3297 14.5136 22.3105 14.4233 22.2731C14.333 22.2357 14.2509 22.1809 14.1817 22.1118C14.1126 22.0427 14.0578 21.9606 14.0204 21.8703C13.983 21.7799 13.9638 21.6831 13.9639 21.5854V16.3751C13.9639 16.1777 14.0423 15.9884 14.1819 15.8488C14.3215 15.7092 14.5108 15.6308 14.7082 15.6308C14.9056 15.6308 15.0949 15.7092 15.2345 15.8488C15.3741 15.9884 15.4525 16.1777 15.4525 16.3751V21.5854C15.4526 21.6831 15.4333 21.7799 15.396 21.8703C15.3586 21.9606 15.3037 22.0427 15.2346 22.1118C15.1655 22.1809 15.0834 22.2357 14.9931 22.2731C14.9028 22.3105 14.8059 22.3297 14.7082 22.3297Z" fill="white"/>
</svg>
