<svg width="24" height="22" viewBox="0 0 24 22" fill="none" xmlns="http://www.w3.org/2000/svg">
<path d="M21.3488 11.0838L12.518 20.3135C12.2302 20.6143 11.7501 20.6143 11.4624 20.3136C11.4624 20.3136 11.4624 20.3136 11.4624 20.3136L2.61887 11.07C0.153348 8.23705 0.76023 4.91698 2.73175 2.86306C4.69749 0.815167 7.95505 0.0945681 10.9053 2.57859L10.9054 2.57868C11.545 3.11707 12.4685 3.0901 13.0816 2.55723L13.0817 2.55717C15.7828 0.209028 19.0999 0.787987 21.1607 2.76979C22.1898 3.7594 22.8683 5.07262 22.9827 6.49802C23.0954 7.90201 22.6675 9.49388 21.3488 11.0838Z" stroke="white" stroke-width="2"/>
</svg>
