<svg width="16" height="15" viewBox="0 0 16 15" fill="none" xmlns="http://www.w3.org/2000/svg">
<path d="M1.54893 7.55985C-0.202406 5.55214 0.231178 3.18007 1.62879 1.72404C3.0241 0.270413 5.35433 -0.242645 7.44196 1.51507L7.442 1.51511C7.76554 1.78744 8.23414 1.77474 8.54615 1.50355L8.54618 1.50353C10.4675 -0.166717 12.835 0.253247 14.292 1.65432C15.0199 2.35433 15.5056 3.28879 15.5876 4.31068C15.669 5.32433 15.3558 6.45586 14.4317 7.56678L8.53804 13.7267C8.24115 14.037 7.74574 14.037 7.4489 13.7268C7.4489 13.7268 7.4489 13.7268 7.44889 13.7268L1.54893 7.55985Z" stroke="white" stroke-width="0.8"/>
</svg>
