<svg width="30" height="23" viewBox="0 0 30 23" fill="none" xmlns="http://www.w3.org/2000/svg">
<path d="M8.54447 18.8375H3.89453V8.43979C3.89453 8.18102 4.10428 7.97127 4.36305 7.97127H8.07595C8.33472 7.97127 8.54447 8.18102 8.54447 8.43979V18.8375Z" fill="#5AD776"/>
<path d="M17.1822 18.8375H12.5322V6.39023C12.5322 6.13146 12.742 5.92171 13.0007 5.92171H16.7136C16.9724 5.92171 17.1822 6.13146 17.1822 6.39023V18.8375Z" fill="#5AD776"/>
<path d="M25.8179 18.8375H21.168V9.1868C21.168 8.92803 21.3777 8.71828 21.6365 8.71828H25.3494C25.6082 8.71828 25.8179 8.92803 25.8179 9.1868V18.8375Z" fill="#5AD776"/>
<path d="M28.3583 22.1739H1.35876C0.893663 22.1739 0.516602 21.7968 0.516602 21.3318C0.516602 20.8667 0.893663 20.4896 1.35876 20.4896H28.3583C28.8234 20.4896 29.2005 20.8667 29.2005 21.3318C29.2005 21.7968 28.8235 22.1739 28.3583 22.1739Z" fill="#5AD776"/>
<path d="M28.8462 3.2046C28.8741 2.85263 28.669 2.42044 28.1992 2.31112L25.4782 1.64975C25.0261 1.53954 24.5708 1.81717 24.461 2.26913C24.3511 2.72109 24.6284 3.17652 25.0804 3.28634L25.85 3.47341L23.6684 4.81969L15.3964 0.110344C15.1585 -0.0251314 14.8695 -0.0365285 14.6219 0.0798576L6.39944 3.93929L2.46881 1.48615C2.07429 1.23973 1.55479 1.3601 1.30849 1.75468C1.06224 2.14921 1.1825 2.6687 1.57708 2.91501L5.89656 5.61075C6.13893 5.76206 6.44155 5.78014 6.70026 5.6587L14.9424 1.79L23.2691 6.5305C23.4858 6.64413 23.7878 6.70303 24.1281 6.51528L26.7727 4.88324L26.5966 5.7081C26.4028 6.80532 27.956 7.11692 28.2438 6.0599L28.8275 3.32604C28.8341 3.28769 28.8366 3.29308 28.8462 3.2046Z" fill="#5AD776"/>
</svg>
