<svg width="23" height="23" viewBox="0 0 23 23" fill="none" xmlns="http://www.w3.org/2000/svg">
<path d="M11.5456 9.43301C14.1463 9.43301 16.2621 7.31718 16.2621 4.7165C16.2621 2.11581 14.1463 -1.52588e-05 11.5456 -1.52588e-05C11.1324 -1.52588e-05 10.7202 0.0556396 10.3165 0.165063C9.81371 0.301842 9.51657 0.819715 9.65429 1.32344C9.79107 1.82622 10.3099 2.12336 10.8127 1.98564C11.0542 1.91961 11.3004 1.88659 11.5456 1.88659C13.1058 1.88659 14.3755 3.15628 14.3755 4.7165C14.3755 6.27672 13.1058 7.54641 11.5456 7.54641C9.98539 7.54641 8.71571 6.27672 8.71571 4.7165C8.71571 4.47313 8.74778 4.23636 8.81381 3.99298C8.95153 3.4902 8.65439 2.97139 8.15161 2.83461C7.64978 2.69783 7.13096 2.99497 6.99418 3.49681C6.88381 3.90431 6.8291 4.30333 6.8291 4.7165C6.8291 7.31718 8.94493 9.43301 11.5456 9.43301Z" fill="white"/>
<path d="M21.4509 11.3196H19.8944C19.3728 11.3196 18.9511 11.7422 18.9511 12.2629C18.9511 12.7846 19.3728 13.2062 19.8944 13.2062H20.966C20.8528 15.157 20.0397 16.9719 18.6436 18.3595C17.1362 19.866 15.1345 20.6961 13.0083 20.6961H10.0746C5.84299 20.6961 2.37163 17.3775 2.12637 13.2072H16.1212C16.6429 13.2072 17.0645 12.7855 17.0645 12.2639C17.0645 11.7432 16.6429 11.3206 16.1212 11.3206H1.64152C0.861405 11.3206 0.226562 11.9554 0.226562 12.7355C0.226562 18.1642 4.64499 22.5827 10.0746 22.5827H13.0074C15.6373 22.5827 18.1125 21.5564 19.9746 19.6952C21.8395 17.8416 22.8658 15.3702 22.8658 12.7346C22.8658 11.9545 22.231 11.3196 21.4509 11.3196Z" fill="white"/>
</svg>
