<svg width="23" height="23" viewBox="0 0 23 23" fill="none" xmlns="http://www.w3.org/2000/svg">
<path d="M11.5189 0C9.9639 0.011443 8.42738 0.337885 7.00206 0.959617C5.57675 1.58135 4.29222 2.48547 3.22601 3.61741L3.09637 2.73083C3.08852 2.61616 3.05712 2.50434 3.00413 2.40234C2.95114 2.30035 2.87769 2.21037 2.78837 2.13802C2.69906 2.06568 2.59579 2.01252 2.48501 1.98186C2.37424 1.9512 2.25833 1.94371 2.14453 1.95984C2.03073 1.97598 1.92147 2.01539 1.82358 2.07563C1.72569 2.13587 1.64127 2.21564 1.57558 2.30996C1.50989 2.40428 1.46435 2.51113 1.4418 2.62384C1.41924 2.73654 1.42016 2.85268 1.44449 2.96502L1.86269 5.77949C1.86269 5.77949 1.86269 5.77949 1.86269 5.80458C1.86269 5.82967 1.86269 5.85476 1.86269 5.87986L1.88778 5.95931C1.88778 5.98022 1.88778 6.00113 1.91706 6.02622C1.92862 6.05124 1.94263 6.07506 1.95888 6.09732L1.99651 6.15587C2.01376 6.18006 2.03337 6.20247 2.05506 6.22278L2.10106 6.27296L2.17634 6.33569L2.20979 6.36078C2.23954 6.38162 2.27188 6.39849 2.30598 6.41097L2.35198 6.43606L2.49835 6.47788H2.56944H2.6489H2.77018L5.58465 6.05968C5.80647 6.02807 6.00666 5.90964 6.14116 5.73043C6.27566 5.55122 6.33347 5.32593 6.30186 5.1041C6.27025 4.88227 6.15181 4.68209 5.9726 4.54759C5.7934 4.41308 5.5681 4.35528 5.34628 4.38689L4.65207 4.48726C6.4832 2.68467 8.94936 1.67387 11.5189 1.67279C13.4212 1.67279 15.2809 2.23691 16.8626 3.29381C18.4444 4.3507 19.6772 5.85292 20.4052 7.61047C21.1332 9.36803 21.3237 11.302 20.9526 13.1678C20.5815 15.0336 19.6654 16.7475 18.3202 18.0927C16.975 19.4378 15.2612 20.3539 13.3954 20.7251C11.5295 21.0962 9.59557 20.9057 7.83801 20.1777C6.08045 19.4497 4.57824 18.2169 3.52135 16.6351C2.46445 15.0533 1.90033 13.1937 1.90033 11.2913C1.90033 11.0695 1.81221 10.8568 1.65535 10.6999C1.4985 10.5431 1.28576 10.4549 1.06393 10.4549C0.842108 10.4549 0.629368 10.5431 0.472513 10.6999C0.315659 10.8568 0.227539 11.0695 0.227539 11.2913C0.227539 13.5245 0.889764 15.7076 2.13047 17.5645C3.37118 19.4213 5.13464 20.8685 7.19786 21.7232C9.26109 22.5778 11.5314 22.8014 13.7217 22.3657C15.912 21.93 17.9239 20.8546 19.503 19.2755C21.0822 17.6964 22.1576 15.6845 22.5932 13.4942C23.0289 11.3039 22.8053 9.03355 21.9507 6.97033C21.0961 4.9071 19.6488 3.14364 17.792 1.90293C15.9351 0.662225 13.7521 0 11.5189 0Z" fill="white"/>
</svg>
