<svg width="11" height="11" viewBox="0 0 11 11" fill="none" xmlns="http://www.w3.org/2000/svg">
<path d="M10.8747 10.2699L8.19016 7.58543C8.85744 6.783 9.25945 5.75259 9.25945 4.62987C9.25945 2.07695 7.18256 0 4.62975 0C2.07689 0 0 2.07695 0 4.62987C0 7.18262 2.07689 9.25939 4.62975 9.25939C5.75242 9.25939 6.78289 8.85744 7.58531 8.19016L10.2699 10.8747C10.3534 10.9582 10.4629 11 10.5723 11C10.6817 11 10.7912 10.9582 10.8747 10.8747C11.0418 10.7077 11.0418 10.4369 10.8747 10.2699ZM0.855345 4.62987C0.855345 2.54859 2.54853 0.855345 4.62975 0.855345C6.71092 0.855345 8.40405 2.54859 8.40405 4.62987C8.40405 6.71098 6.71092 8.40405 4.62975 8.40405C2.54853 8.40405 0.855345 6.71098 0.855345 4.62987Z" fill="white"/>
</svg>
