<svg width="29" height="27" viewBox="0 0 29 27" fill="none" xmlns="http://www.w3.org/2000/svg">
<path d="M11.4754 26.5637C11.4754 22.7908 11.4754 19.0293 11.4754 15.2621C10.9125 15.2223 10.3609 15.1939 9.815 15.137C8.72891 15.029 7.64282 14.9266 6.56241 14.7788C5.25456 14.6025 3.96376 14.3409 2.70139 13.9429C1.96785 13.7126 1.24853 13.4453 0.620192 12.9847C0.49225 12.8909 0.372837 12.7829 0.267639 12.6663C-0.0934428 12.2597 -0.0877568 11.802 0.276169 11.4011C0.640094 11.0031 1.10637 10.7557 1.59256 10.5482C2.83502 10.0165 4.14003 9.70658 5.46779 9.48765C6.40035 9.33412 7.33575 9.18628 8.274 9.08392C9.30323 8.97304 10.3353 8.91902 11.3674 8.83941C11.3986 8.83657 11.4271 8.83372 11.4697 8.82804C11.4697 7.69077 11.4697 6.56203 11.4697 5.41339C8.87675 5.41339 6.28094 5.41339 3.67091 5.41339C3.67091 3.59945 3.67091 1.80541 3.67091 0C10.8812 0 18.0858 0 25.3046 0C25.3046 1.79688 25.3046 3.59092 25.3046 5.40486C22.7059 5.40486 20.1186 5.40486 17.52 5.40486C17.52 6.5535 17.52 7.68224 17.52 8.82519C17.9521 8.85363 18.3815 8.88206 18.8108 8.91049C20.8266 9.04696 22.8282 9.28863 24.8013 9.73217C25.8334 9.96531 26.8598 10.2326 27.798 10.7415C28.1278 10.9206 28.4463 11.1481 28.7135 11.4068C29.0974 11.7792 29.086 12.2427 28.7363 12.6521C28.3809 13.07 27.9032 13.3117 27.4142 13.525C26.3708 13.9827 25.2733 14.2841 24.1559 14.4746C22.8623 14.6963 21.563 14.884 20.2608 15.0432C19.3993 15.1484 18.5265 15.1797 17.6593 15.2422C17.6166 15.2451 17.574 15.2479 17.5171 15.2536C17.5171 19.0265 17.5171 22.7852 17.5171 26.558C15.5013 26.5637 13.5026 26.5637 11.4754 26.5637ZM11.4754 9.47344C11.4328 9.47059 11.4072 9.46491 11.3844 9.46491C10.6168 9.51324 9.84911 9.53883 9.0843 9.61844C8.01243 9.73216 6.9434 9.87148 5.87721 10.025C4.87926 10.17 3.89836 10.3918 2.94875 10.7472C2.55639 10.895 2.16688 11.0571 1.86266 11.3613C1.55559 11.6684 1.55559 11.9783 1.8854 12.2626C2.07589 12.4246 2.29482 12.5668 2.51943 12.6748C3.23022 13.0217 3.98935 13.2321 4.75984 13.3714C5.83172 13.5648 6.90928 13.7325 7.98968 13.8747C8.7943 13.9799 9.6046 14.0453 10.4149 14.0993C11.302 14.1561 12.1919 14.1874 13.079 14.2073C14.9213 14.2528 16.7665 14.2329 18.6032 14.0936C20.0049 13.9855 21.4066 13.8235 22.7997 13.6415C23.8489 13.505 24.8838 13.2804 25.8817 12.9194C26.3224 12.7601 26.766 12.5895 27.11 12.2512C27.4114 11.9527 27.4227 11.6342 27.1015 11.3641C26.8626 11.1651 26.5868 10.9888 26.2997 10.8666C24.7928 10.2326 23.1921 10.0023 21.5886 9.79756C20.7384 9.68952 19.8855 9.62413 19.0325 9.5502C18.5293 9.50756 18.0232 9.48481 17.4972 9.45353C17.4972 10.7585 17.4972 12.038 17.4972 13.3288C15.4814 13.4254 13.4855 13.4226 11.4697 13.3316C11.4754 12.0408 11.4754 10.7614 11.4754 9.47344Z" fill="white"/>
</svg>
