<svg width="14" height="16" viewBox="0 0 14 16" fill="none" xmlns="http://www.w3.org/2000/svg">
<path d="M5.86321 6.64487C7.69813 6.64487 9.18564 5.15736 9.18564 3.32243C9.18564 1.48751 7.69813 0 5.86321 0C4.02828 0 2.54077 1.48751 2.54077 3.32243C2.54077 5.15736 4.02828 6.64487 5.86321 6.64487Z" fill="white"/>
<path d="M5.99042 14.7268C5.89641 14.6328 5.88402 14.4845 5.96137 14.3764L6.22225 14.0106C6.36177 13.8151 6.38847 13.5645 6.29404 13.3393C6.29147 13.3335 6.28912 13.3277 6.28677 13.3222L6.28549 13.3192C6.19191 13.0946 5.99598 12.9374 5.76116 12.898L5.30222 12.8216C5.17103 12.7998 5.07488 12.6861 5.07488 12.5532V11.4667C5.07488 11.3338 5.17103 11.2202 5.30222 11.1984L5.74535 11.1244C5.98273 11.0849 6.17994 10.9245 6.27288 10.6956L6.27993 10.6781C6.37224 10.4542 6.34446 10.2055 6.20622 10.0117L5.93573 9.63287C5.85838 9.52455 5.87077 9.37626 5.96478 9.28225L6.7329 8.51414C6.82691 8.42013 6.97519 8.40774 7.0833 8.48508L7.44909 8.74596C7.64459 8.88548 7.89543 8.91219 8.12063 8.81775C8.12618 8.81519 8.13174 8.81284 8.13751 8.81049L8.14071 8.80921C8.36548 8.71562 8.52274 8.5197 8.56205 8.28488L8.59282 8.10049C7.77749 7.67039 6.84891 7.42682 5.8633 7.42682C2.62504 7.42682 0 10.0519 0 13.2901C0 14.1535 0.699955 14.8537 1.56357 14.8537H6.11734L5.99042 14.7268Z" fill="white"/>
<path d="M8.87325 11.3977C8.54485 11.7261 8.54485 12.259 8.87325 12.5874C9.20165 12.9158 9.73452 12.9158 10.0629 12.5874C10.3913 12.259 10.3913 11.7261 10.0629 11.3977C9.73452 11.0693 9.20186 11.0693 8.87325 11.3977Z" fill="white"/>
<path d="M13.2287 11.4838L13.1118 11.4644C12.7456 11.403 12.4407 11.159 12.2958 10.8114L12.2877 10.7924C12.1413 10.4435 12.1839 10.0533 12.4011 9.7491L12.4605 9.66577C12.5449 9.5474 12.5315 9.38566 12.4287 9.28289L12.1514 9.00555C12.0486 8.90278 11.8866 8.88932 11.7683 8.97372L11.6719 9.04252C11.4895 9.17264 11.2747 9.24144 11.051 9.24144C10.9087 9.24144 10.769 9.21366 10.6359 9.15875L10.6203 9.15234C10.2665 9.00897 10.0184 8.70216 9.95665 8.33188L9.93977 8.23103C9.91584 8.08767 9.7917 7.98254 9.64641 7.98254H9.25413C9.10884 7.98254 8.9847 8.08767 8.96077 8.23103L8.94133 8.34769C8.88022 8.71305 8.63707 9.01752 8.29094 9.1626L8.26958 9.17178C8.13412 9.22862 7.99182 9.25746 7.84696 9.25746C7.62325 9.25746 7.40852 9.18866 7.22606 9.05854L7.14273 8.99914C7.02436 8.91475 6.86262 8.92821 6.75985 9.03098L6.48251 9.30831C6.37974 9.41108 6.36628 9.57304 6.45068 9.69141L6.51948 9.78777C6.73506 10.0901 6.77865 10.4775 6.63635 10.8227L6.62951 10.8394C6.48593 11.1932 6.17933 11.4413 5.80905 11.503L5.70821 11.5199C5.56484 11.5439 5.45972 11.668 5.45972 11.8133V12.2056C5.45972 12.3509 5.56484 12.475 5.70821 12.4989L5.82508 12.5184C6.19129 12.5797 6.49619 12.8237 6.64148 13.1724L6.64917 13.1903C6.79553 13.5392 6.75301 13.9294 6.53572 14.2336L6.47632 14.317C6.39192 14.4353 6.40538 14.5971 6.50815 14.6998L6.78549 14.9772C6.88826 15.0799 7.05021 15.0934 7.16858 15.009L7.26515 14.9402C7.44784 14.8101 7.66256 14.7413 7.88605 14.7413C8.02835 14.7413 8.16809 14.7691 8.30141 14.824L8.31808 14.8308C8.67126 14.9744 8.91889 15.281 8.98064 15.6508L8.99752 15.7517C9.02145 15.8951 9.14559 16 9.29088 16H9.68316C9.82845 16 9.95259 15.8948 9.97652 15.7515L9.99596 15.6348C10.0573 15.2686 10.3011 14.9637 10.6474 14.8193L10.6679 14.8105C10.8034 14.7537 10.9457 14.7248 11.0905 14.7248C11.3143 14.7248 11.529 14.7936 11.7114 14.9238L11.7948 14.9832C11.9131 15.0676 12.0749 15.0541 12.1777 14.9513L12.455 14.674C12.5578 14.5712 12.5712 14.4093 12.4868 14.2909L12.418 14.1945C12.2024 13.8922 12.1589 13.5048 12.3016 13.1585L12.308 13.1427C12.4514 12.7889 12.7582 12.5406 13.1284 12.4788L13.2293 12.462C13.3727 12.438 13.4778 12.3139 13.4778 12.1686V11.7763C13.4771 11.6319 13.372 11.5077 13.2287 11.4838ZM10.5925 13.1168C9.97267 13.7367 8.96398 13.7367 8.34414 13.1168C7.72431 12.497 7.72431 11.4883 8.34414 10.8685C8.65417 10.5584 9.06119 10.4035 9.46843 10.4035C9.87546 10.4035 10.2827 10.5587 10.5927 10.8685C11.2123 11.4883 11.2123 12.497 10.5925 13.1168Z" fill="white"/>
</svg>
