<svg width="17" height="15" viewBox="0 0 17 15" fill="none" xmlns="http://www.w3.org/2000/svg">
<path d="M2.14244 10.2337V4.21418C2.14244 3.05335 3.08623 2.10955 4.24706 2.10955H9.8835V0H3.48414C1.56367 0 0 1.56367 0 3.48414V10.9868C0 12.9089 1.56367 14.4709 3.48414 14.4709H9.85884V12.3383H4.24706C3.08787 12.3383 2.14244 11.3946 2.14244 10.2337Z" fill="white"/>
<path d="M15.5269 6.77645C14.7163 5.97406 13.9024 5.15688 13.0425 4.29201C12.9126 4.16047 12.781 4.02893 12.6478 3.8941V5.90829V6.23714H12.319H6.70557V8.29408H12.3486H12.6774V8.62293V10.5631C12.6972 10.5417 12.7169 10.522 12.7383 10.5006C13.1575 10.0649 13.5209 9.68839 13.9057 9.31679C14.4384 8.80379 14.9909 8.29408 15.5236 7.80245C15.7209 7.62159 15.9182 7.43908 16.1139 7.25657V7.23683C16.0859 7.2171 16.058 7.19737 16.03 7.17764C15.8607 7.05761 15.6847 6.9343 15.5269 6.77645Z" fill="white"/>
</svg>
