<svg width="14" height="16" viewBox="0 0 14 16" fill="none" xmlns="http://www.w3.org/2000/svg">
<path d="M1.14676 15.4056C0.339147 15.118 0.0310269 14.5402 0.0430628 13.6941C0.071949 11.8141 0.0647275 9.93408 0.0442664 8.05407C0.0382484 7.51125 0.233231 7.30062 0.780866 7.31025C2.01455 7.33432 3.24944 7.31747 4.51802 7.31747C4.51802 10.0581 4.51802 12.7312 4.51802 15.4056C3.39387 15.4056 2.26971 15.4056 1.14676 15.4056Z" fill="white"/>
<path d="M7.28613 15.4059C7.28613 13.0517 7.28613 10.6975 7.28613 8.26501C8.75692 8.79941 10.1627 9.30131 11.5577 9.83209C11.6684 9.87422 11.7647 10.1101 11.7671 10.257C11.7828 11.4967 11.7695 12.7376 11.7755 13.9773C11.7791 14.6958 11.3483 15.0954 10.7778 15.4047C9.61268 15.4059 8.45001 15.4059 7.28613 15.4059Z" fill="white"/>
<path d="M5.47974 15.4064C5.47974 12.8451 5.47974 10.2839 5.47974 7.72144C6.29457 7.76717 6.35595 7.82374 6.35354 8.56034C6.34512 10.8424 6.33308 13.1244 6.32225 15.4064C6.04181 15.4064 5.76138 15.4064 5.47974 15.4064Z" fill="white"/>
<path d="M5.96099 0C7.14052 0.577725 7.47391 1.13619 7.45225 2.55282C6.26189 2.11953 5.08959 1.69225 3.90405 1.26016C4.04487 0.533192 4.61899 0.302102 5.11848 0C5.40012 0 5.68056 0 5.96099 0Z" fill="white"/>
<path d="M7.46899 7.36347C7.89025 6.20561 8.28383 5.12117 8.70508 3.96332C10.0459 4.46522 11.3638 4.92258 12.6505 5.45698C13.2751 5.71695 13.511 6.29949 13.3365 6.95184C13.1764 7.54882 12.9453 8.12775 12.7359 8.71029C12.6071 9.06896 12.3255 9.13155 12.0029 9.0148C10.5165 8.478 9.03367 7.93397 7.46899 7.36347Z" fill="white"/>
<path d="M6.15846 3.02699C5.736 4.18845 5.33761 5.28372 4.91635 6.43917C3.33242 5.85904 1.79544 5.309 0.274094 4.71683C0.127255 4.65906 -0.0388406 4.30761 0.00809958 4.15475C0.205489 3.50842 0.441393 2.86691 0.738681 2.2603C1.00708 1.71146 1.57518 1.45509 2.1505 1.63924C3.47686 2.06411 4.78516 2.54796 6.15846 3.02699Z" fill="white"/>
<path d="M11.512 4.02704C10.2952 3.58533 9.12529 3.16166 7.94336 2.73318C8.80152 1.6355 9.71625 1.31655 10.6442 1.7691C11.4663 2.1699 11.7961 2.96668 11.512 4.02704Z" fill="white"/>
<path d="M5.77222 6.7536C6.18986 5.59815 6.58224 4.51612 7.00109 3.35706C7.2731 3.45575 7.52224 3.54482 7.84601 3.66156C7.43558 4.79294 7.0384 5.88821 6.62075 7.03644C6.34152 6.94497 6.1032 6.86433 5.77222 6.7536Z" fill="white"/>
</svg>
